<svg width="405" height="920" viewBox="0 0 405 920" fill="none" xmlns="http://www.w3.org/2000/svg">
<path d="M2 0H403V665.724V696.419V920H2V832.694V677.611V541.942V0Z" fill="#FFF5EE"/>
<path opacity="0.8" d="M2 666.607C9.49595 659.981 16.437 653.773 24.5056 648.48C55.2426 628.315 88.0362 622.985 121.417 632.739C161.338 644.404 197.871 669.11 237.185 684.114C255.987 691.389 275.222 696.437 294.673 699.203C301.363 700.17 308.083 700.508 314.796 701.039C316.181 701.147 317.586 701.133 318.954 701.471C348.982 689.05 371.233 681.283 403 686.27V920H2V828.731V666.607Z" fill="#3B5E49"/>
<path opacity="0.8" d="M2 666.659C9.49704 660.024 16.4391 653.807 24.5089 648.508C55.2503 628.315 88.0488 622.978 121.435 632.745C161.361 644.426 197.899 669.165 237.219 684.189C256.024 691.473 275.262 696.529 294.715 699.298C301.406 700.267 308.127 700.606 314.841 701.137C316.227 701.245 317.632 701.231 319 701.57C310.08 705.665 301.259 709.827 292.43 714.266C260.13 730.503 228.288 749.689 194.786 761.027C177.67 766.674 160.252 770.497 142.693 772.454C131.788 773.78 120.541 774.457 109.596 775.628C78.5462 778.952 49.4046 787.943 22.4305 809.664C14.6991 815.885 9.15929 821.66 2 829V666.659Z" fill="#AAB68F"/>
<path opacity="0.8" d="M2 525.516C70.1025 498.198 123.31 542.078 183.265 579.857C212.039 597.991 237.713 613.165 268.403 625.379C290.99 634.343 314.116 640.609 337.517 644.104C360.705 647.645 379.754 648.49 403 654.766V686.817C371.233 681.835 348.982 689.593 318.954 702C317.586 701.662 316.181 701.676 314.796 701.568C308.083 701.038 301.363 700.701 294.673 699.734C275.222 696.972 255.987 691.929 237.185 684.663C197.871 669.677 161.338 645 121.417 633.348C88.0362 623.606 55.2426 628.93 24.5056 649.071C16.437 654.357 9.49595 660.559 2 667.177V525.516Z" fill="#EC9C5D"/>
</svg>
