<svg width="1440" height="617" viewBox="0 0 1440 617" fill="none" xmlns="http://www.w3.org/2000/svg">
<g clip-path="url(#clip0_185_2375)">
<path d="M0 -93H1440V346.124V617H0V574.184V418.249V264.295V-93Z" fill="#FFF5EE"/>
<path opacity="0.8" d="M1065.5 495.5C1065.5 495.5 1085.66 490.72 1093.94 488.534C1208.92 458.157 1319.83 431.502 1440 446.123V617H0V589.991V491.622C32.8189 475.797 81.7671 468.889 118.166 465.831C198.377 459.093 273.085 478.522 351.233 490.183C395.901 497.004 441.102 500.315 486.362 500.079C543.636 500.329 600.829 496.054 657.329 487.301C707.33 479.613 757.047 468.343 807.474 464.818C817.664 464.106 829.233 464.404 839.509 464.578C881.801 469.407 919.081 480.949 960.57 488.744C998.035 495.785 1065.5 495.5 1065.5 495.5Z" fill="#003320"/>
<path d="M0 489.555C32.8326 473.556 81.8013 466.573 118.216 463.482C198.46 456.67 273.2 476.312 351.38 488.101C396.066 494.996 441.287 498.343 486.566 498.105C543.864 498.357 601.08 494.036 657.605 485.187C707.627 477.415 757.365 466.021 807.812 462.457C818.007 461.738 829.719 461.825 840 462C882.309 466.882 919.466 478.765 960.973 486.646C998.453 493.764 1028.07 495.294 1065.5 495.5C1041.2 502.291 1015.81 506.556 991.124 512.42C918.703 529.624 842.03 543.628 767.121 545.072C680.088 546.749 591.624 533.504 505.02 525.229C331.064 508.608 160.136 518.898 0 589V489.555Z" fill="#CEDBB5"/>
<path d="M0 390.553C153.673 345.179 292.007 409.93 436.54 446.546C475.692 456.679 515.675 463.596 556.053 467.223C591.463 470.298 627.096 470.14 662.475 466.753C689.892 464.324 716.905 460.416 744.481 458.981C776.369 457.444 808.331 458.104 840 462C829.718 461.822 818.142 462.041 807.946 462.772C757.49 466.392 707.744 477.968 657.714 485.864C601.18 494.854 543.953 499.245 486.646 498.988C441.36 499.23 396.132 495.83 351.439 488.824C273.245 476.848 198.493 456.892 118.235 463.813C81.8148 466.953 32.8381 474.048 0 490.302V390.553Z" fill="#FFD6B5"/>
</g>
<defs>
<clipPath id="clip0_185_2375">
<rect width="1440" height="617" fill="white"/>
</clipPath>
</defs>
</svg>
