<svg width="384" height="315" viewBox="0 0 384 315" fill="none" xmlns="http://www.w3.org/2000/svg">
<g clip-path="url(#clip0_21_2373)">
<mask id="mask0_21_2373" style="mask-type:luminance" maskUnits="userSpaceOnUse" x="0" y="0" width="384" height="315">
<path d="M0 0H384V315H0V0Z" fill="white"/>
</mask>
<g mask="url(#mask0_21_2373)">
<path d="M102.935 259.324C99.8855 260.395 96.6122 260.664 93.4296 260.103C90.2469 259.543 87.2624 258.173 84.7633 256.126C78.3989 250.788 76.4035 241.994 74.7798 233.852L69.9775 209.767L80.0317 216.685C87.2621 221.66 94.6554 226.794 99.6617 233.999C104.668 241.205 106.854 251.042 102.831 258.838" fill="#E6E6E6"/>
<path d="M102.074 288.484C103.092 281.077 104.138 273.575 103.424 266.089C102.79 259.441 100.76 252.947 96.6278 247.623C94.4342 244.802 91.7649 242.385 88.7402 240.481C87.9514 239.983 87.2255 241.232 88.0108 241.728C93.2445 245.033 97.2926 249.913 99.5715 255.666C102.088 262.062 102.493 269.036 102.059 275.831C101.797 279.94 101.241 284.023 100.68 288.1C100.636 288.284 100.664 288.478 100.758 288.643C100.851 288.808 101.004 288.931 101.185 288.988C101.37 289.038 101.567 289.013 101.733 288.918C101.9 288.824 102.022 288.668 102.074 288.484Z" fill="#F2F2F2"/>
<path d="M92.2731 275.377C90.9655 277.363 89.1682 278.979 87.0543 280.069C84.9404 281.159 82.5811 281.687 80.2038 281.602C74.0941 281.312 69.0006 277.051 64.4154 273.006L50.8535 261.041L59.8292 260.612C66.284 260.303 72.9054 260.015 79.0534 262.004C85.2014 263.993 90.8714 268.78 91.9956 275.139" fill="#E6E6E6"/>
<path d="M104.95 292.741C100.052 284.081 94.3708 274.457 84.2194 271.381C81.3968 270.528 78.4372 270.223 75.4998 270.481C74.574 270.561 74.8052 271.987 75.7293 271.907C80.6529 271.499 85.5671 272.798 89.6444 275.586C93.568 278.254 96.6229 281.964 99.2085 285.899C100.792 288.309 102.211 290.821 103.63 293.33C104.083 294.131 105.409 293.553 104.95 292.741Z" fill="#F2F2F2"/>
<path d="M225.671 231.903C231.68 234.014 238.131 234.542 244.403 233.438C250.676 232.334 256.558 229.635 261.483 225.6C274.027 215.08 277.959 197.748 281.159 181.7C284.314 165.878 287.469 150.055 290.624 134.233L270.809 147.867C256.558 157.671 241.987 167.79 232.121 181.991C222.254 196.193 217.947 215.579 225.875 230.945" fill="#E6E6E6"/>
<path d="M227.364 289.372C225.358 274.774 223.296 259.989 224.702 245.235C225.952 232.132 229.953 219.334 238.097 208.841C242.421 203.281 247.681 198.518 253.643 194.765C255.197 193.784 256.628 196.246 255.08 197.222C244.765 203.736 236.787 213.355 232.296 224.692C227.335 237.299 226.539 251.042 227.393 264.435C227.91 272.534 229.006 280.58 230.11 288.615C230.197 288.979 230.143 289.362 229.958 289.687C229.773 290.012 229.472 290.254 229.115 290.366C228.751 290.464 228.363 290.415 228.035 290.229C227.707 290.042 227.466 289.735 227.364 289.372Z" fill="#F2F2F2"/>
<path d="M246.682 263.541C249.259 267.455 252.802 270.639 256.968 272.788C261.134 274.937 265.784 275.977 270.469 275.809C282.511 275.238 292.549 266.84 301.586 258.867L328.314 235.286L310.625 234.44C297.903 233.832 284.853 233.265 272.736 237.185C260.62 241.105 249.445 250.539 247.229 263.071" fill="#E6E6E6"/>
<path d="M221.695 297.763C231.349 280.696 242.545 261.727 262.552 255.664C268.115 253.984 273.948 253.383 279.737 253.891C281.562 254.049 281.106 256.859 279.285 256.702C269.581 255.897 259.896 258.457 251.86 263.952C244.128 269.212 238.107 276.523 233.011 284.277C229.89 289.027 227.094 293.978 224.297 298.923C223.403 300.503 220.791 299.362 221.695 297.763Z" fill="#F2F2F2"/>
<path d="M296.201 66.6952L379.316 49.2953L380.396 49.0697C380.946 48.9537 381.518 48.9953 382.045 49.1895C382.573 49.3837 383.035 49.7228 383.378 50.1677C383.721 50.6126 383.932 51.1452 383.985 51.7044C384.039 52.2636 383.934 52.8266 383.682 53.3286L350.327 120.011C350.111 120.439 349.795 120.809 349.406 121.09C349.017 121.371 348.566 121.555 348.091 121.626C347.615 121.697 347.129 121.651 346.674 121.492C346.22 121.333 345.81 121.066 345.482 120.714L322.734 96.4598C322.572 96.283 322.376 96.1415 322.156 96.0443C321.937 95.9471 321.7 95.8962 321.46 95.895C321.135 95.8885 320.813 95.9706 320.53 96.1327C320.247 96.2948 320.014 96.5306 319.855 96.815L315.115 105.453C314.812 106.029 314.325 106.488 313.731 106.755C313.138 107.023 312.472 107.084 311.839 106.93L311.816 106.924C311.176 106.785 310.601 106.434 310.184 105.929C309.767 105.424 309.533 104.793 309.518 104.138L308.697 84.1281C308.688 83.8785 308.627 83.6335 308.518 83.4083C308.402 83.1854 308.243 82.9873 308.051 82.8249L294.909 71.914C294.477 71.5554 294.155 71.0825 293.98 70.5494C293.804 70.0162 293.783 69.4445 293.918 68.8998C294.053 68.355 294.338 67.8593 294.742 67.4694C295.146 67.0794 295.652 66.8111 296.201 66.6952ZM295.669 70.9977L308.811 81.9084C308.982 82.048 309.137 82.2063 309.273 82.3805L379.455 51.0768C379.517 51.0484 379.582 51.0262 379.648 51.0105C379.918 50.9426 380.204 50.9712 380.455 51.0915C380.707 51.2117 380.908 51.416 381.025 51.669C381.142 51.922 381.166 52.2078 381.095 52.477C381.023 52.7461 380.859 52.9818 380.632 53.1431L322.83 95.0439C323.121 95.1974 323.384 95.3999 323.606 95.6425L346.354 119.897C346.551 120.107 346.797 120.266 347.069 120.361C347.341 120.456 347.632 120.484 347.917 120.443C348.203 120.401 348.474 120.292 348.708 120.123C348.942 119.955 349.131 119.732 349.261 119.475L382.616 52.7927C382.765 52.4914 382.826 52.1543 382.793 51.8198C382.76 51.4853 382.633 51.1669 382.428 50.9008C382.222 50.6347 381.946 50.4316 381.631 50.3147C381.315 50.1978 380.973 50.1718 380.644 50.2396L379.538 50.4715L296.45 67.8651C296.12 67.9344 295.816 68.0952 295.573 68.3289C295.331 68.5627 295.159 68.8601 295.077 69.187C294.996 69.5138 295.008 69.857 295.113 70.1772C295.217 70.4975 295.41 70.7818 295.669 70.9977Z" fill="#CCCCCC"/>
<path d="M296.201 66.6952L379.316 49.2953L380.396 49.0697C380.946 48.9537 381.518 48.9953 382.045 49.1895C382.573 49.3837 383.035 49.7228 383.378 50.1677C383.721 50.6126 383.932 51.1452 383.985 51.7044C384.039 52.2636 383.934 52.8266 383.682 53.3286L350.327 120.011C350.111 120.439 349.795 120.809 349.406 121.09C349.017 121.371 348.566 121.555 348.091 121.626C347.615 121.697 347.129 121.651 346.674 121.492C346.22 121.333 345.81 121.066 345.482 120.714L322.734 96.4598C322.572 96.283 322.376 96.1415 322.156 96.0443C321.937 95.9471 321.7 95.8962 321.46 95.895C321.135 95.8885 320.813 95.9706 320.53 96.1327C320.247 96.2948 320.014 96.5306 319.855 96.815L315.115 105.453C314.812 106.029 314.325 106.488 313.731 106.755C313.138 107.023 312.472 107.084 311.839 106.93L311.816 106.924C311.176 106.785 310.601 106.434 310.184 105.929C309.767 105.424 309.533 104.793 309.518 104.138L308.697 84.1281C308.688 83.8785 308.627 83.6335 308.518 83.4083C308.402 83.1854 308.243 82.9873 308.051 82.8249L294.909 71.914C294.477 71.5554 294.155 71.0825 293.98 70.5494C293.804 70.0162 293.783 69.4445 293.918 68.8998C294.053 68.355 294.338 67.8593 294.742 67.4694C295.146 67.0794 295.652 66.8111 296.201 66.6952ZM295.669 70.9977L308.811 81.9085C308.982 82.048 309.137 82.2063 309.273 82.3805C309.395 82.5355 309.501 82.7031 309.588 82.8805C309.679 83.0619 309.75 83.2525 309.801 83.449L309.8 83.4548C309.853 83.6595 309.883 83.8696 309.89 84.081L310.71 104.091C310.716 104.484 310.855 104.864 311.105 105.168C311.355 105.472 311.702 105.681 312.087 105.762L312.099 105.765C312.478 105.861 312.879 105.827 313.237 105.667C313.594 105.508 313.887 105.232 314.069 104.885L318.81 96.2409C319.054 95.7963 319.408 95.4214 319.838 95.1519C320.268 94.8824 320.76 94.7271 321.267 94.7008L321.273 94.7021C321.341 94.6993 321.409 94.6964 321.476 94.6993C321.948 94.7023 322.413 94.8206 322.83 95.0439C323.121 95.1974 323.384 95.3999 323.606 95.6424L346.354 119.897C346.551 120.107 346.797 120.266 347.069 120.361C347.341 120.456 347.632 120.484 347.917 120.443C348.203 120.401 348.474 120.292 348.708 120.123C348.942 119.955 349.131 119.732 349.261 119.475L382.616 52.7927C382.765 52.4914 382.826 52.1543 382.793 51.8198C382.76 51.4853 382.633 51.1669 382.428 50.9008C382.222 50.6347 381.946 50.4316 381.631 50.3147C381.315 50.1978 380.973 50.1718 380.644 50.2396L379.538 50.4715L296.45 67.8651C296.12 67.9344 295.816 68.0952 295.573 68.3289C295.331 68.5627 295.159 68.8601 295.077 69.187C294.996 69.5138 295.008 69.857 295.113 70.1772C295.217 70.4975 295.41 70.7818 295.669 70.9977Z" fill="#3F3D56"/>
<path d="M309.007 82.4976L309.494 83.5873L309.799 83.4548L309.801 83.449L379.927 52.1755L321.273 94.7021L321.267 94.7008L321.112 94.8185L321.81 95.7848L322.83 95.0439L380.632 53.1431C380.859 52.9818 381.023 52.7461 381.094 52.4769C381.166 52.2077 381.142 51.9219 381.025 51.6689C380.908 51.4159 380.707 51.2117 380.455 51.0914C380.204 50.9712 379.918 50.9426 379.648 51.0105C379.581 51.0262 379.517 51.0484 379.455 51.0768L309.273 82.3805L309.007 82.4976Z" fill="#3F3D56"/>
<path d="M128.559 165.864L125.526 195.497L125.466 196.105L124.564 204.893L117.161 277.248V277.26L115.722 291.297C116.284 292.052 116.781 292.852 117.208 293.69C118.513 296.262 119.15 299.12 119.063 302.002C118.975 304.883 118.165 307.697 116.707 310.185C113.095 309.279 109.533 308.245 106.02 307.083C98.7531 304.695 91.6661 301.792 84.8125 298.397C85.5254 294.478 87.5738 290.926 90.6099 288.344L98.0433 199.1L98.6939 191.273L100.814 165.864H128.559Z" fill="#FFB8B8"/>
<path d="M107.3 85.1557C91.9703 69.8377 91.9702 45.0022 107.3 29.6841C122.63 14.3661 147.484 14.3661 162.814 29.6841C178.144 45.0022 178.144 69.8377 162.814 85.1557C147.484 100.474 122.63 100.474 107.3 85.1557Z" fill="#FFB8B8"/>
<path d="M208.224 219.313C208.218 219.39 208.212 219.468 208.206 219.539C208.075 221.07 207.458 222.518 206.445 223.673C205.433 224.828 204.076 225.629 202.575 225.959L143.993 238.744C143.485 238.855 142.967 238.911 142.447 238.911C140.875 238.91 139.347 238.395 138.098 237.443C136.848 236.491 135.945 235.157 135.527 233.643C135.401 233.178 135.264 232.7 135.115 232.205V232.199C133.139 225.493 129.61 216.366 124.565 204.893C123.425 202.298 122.205 199.58 120.905 196.738C120.666 196.213 120.422 195.682 120.183 195.151C117.502 189.334 114.511 183.038 111.209 176.263C109.593 172.951 108.373 169.461 107.573 165.864C105.446 156.369 106.286 146.451 109.979 137.449C110.731 135.616 111.599 133.832 112.576 132.109C116.432 125.317 121.896 119.573 128.488 115.38C135.081 111.188 142.603 108.674 150.393 108.061C151.629 107.959 152.859 107.911 154.095 107.911C166.457 107.966 178.322 112.777 187.225 121.347C192.479 126.437 196.468 132.684 198.874 139.59C199.029 140.026 199.172 140.467 199.316 140.909C201.521 147.896 203.292 155.013 204.618 162.219C205.411 166.497 206.056 170.715 206.576 174.825C208.397 189.58 208.948 204.464 208.224 219.313Z" fill="#003320"/>
<path d="M234.022 294.268C198.432 314.482 156.404 320.185 116.708 310.186C113.096 309.279 109.534 308.245 106.021 307.083C109.137 296.929 112.858 286.971 117.162 277.26V277.248C124.338 261.17 130.93 251.332 134.142 246.989C134.67 246.269 135.018 245.434 135.156 244.553C135.294 243.671 135.219 242.77 134.936 241.924L133.939 238.935C133.559 237.804 133.468 236.596 133.674 235.421C133.879 234.246 134.374 233.141 135.115 232.205V232.199C135.181 232.116 135.252 232.032 135.324 231.949C161.421 202.238 206.916 218.448 207.376 218.615L207.603 218.698L207.746 218.895C207.902 219.11 208.057 219.319 208.206 219.539C220.541 236.811 228.739 263.359 234.022 294.268Z" fill="#FBD6C3"/>
<path d="M287.664 102.983C287.468 103.845 287.34 104.721 287.281 105.602L218.625 145.18L201.937 135.58L184.147 158.852L212.037 178.715C214.29 180.32 217.003 181.151 219.769 181.084C222.535 181.016 225.205 180.054 227.377 178.342L298.173 122.533C301.368 123.714 304.848 123.896 308.149 123.054C311.45 122.212 314.416 120.385 316.653 117.817C318.889 115.249 320.29 112.062 320.67 108.679C321.049 105.295 320.389 101.877 318.777 98.8781C317.165 95.8792 314.677 93.4417 311.645 91.89C308.612 90.3383 305.179 89.7458 301.801 90.1914C298.424 90.6371 295.262 92.0997 292.737 94.3847C290.211 96.6697 288.442 99.6688 287.664 102.983Z" fill="#FFB8B8"/>
<path d="M217.572 144.572V144.578C217.324 145.476 216.902 146.317 216.33 147.054L204.616 162.219L199.034 169.456L194.138 175.791C193.507 176.609 192.707 177.281 191.792 177.762C190.878 178.243 189.87 178.521 188.839 178.577C187.807 178.634 186.775 178.468 185.813 178.09C184.852 177.712 183.983 177.132 183.266 176.388L165.486 157.941L158.148 150.323C153.979 147.072 151.27 142.302 150.615 137.059C149.96 131.815 151.413 126.526 154.655 122.352C157.898 118.177 162.664 115.457 167.91 114.789C173.156 114.121 178.453 115.559 182.639 118.787L187.224 121.347L214.145 136.393C215.548 137.179 216.647 138.411 217.268 139.893C217.889 141.375 217.996 143.022 217.572 144.572Z" fill="#003320"/>
<path d="M139.92 154.082L138.797 189.907L138.792 190.134C138.76 191.166 138.505 192.18 138.046 193.105C137.587 194.031 136.933 194.847 136.129 195.497C135.325 196.147 134.391 196.616 133.389 196.872C132.388 197.129 131.343 197.166 130.325 196.982L125.465 196.105L124.223 195.879H124.217L120.181 195.151L98.6937 191.273L94.5799 190.533C93.5634 190.349 92.5985 189.947 91.751 189.357C90.9034 188.767 90.1929 188.001 89.6678 187.112C89.1428 186.222 88.8154 185.231 88.708 184.204C88.6006 183.177 88.7155 182.139 89.0452 181.161L100.634 146.875C101.603 141.681 104.594 137.083 108.95 134.09C113.306 131.096 118.673 129.95 123.873 130.904C129.073 131.858 133.683 134.834 136.691 139.179C139.699 143.523 140.86 148.883 139.92 154.082Z" fill="#003320"/>
<path d="M141.269 48.3978C151.359 55.2978 164.606 62.3905 174.911 55.0426C181.677 50.2179 183.809 41.2836 181.065 33.4432C176.131 19.3439 162.574 13.1367 149.611 8.37872C132.758 2.1934 114.408 -2.7273 97.011 1.70232C79.6135 6.13195 64.2381 22.9632 67.3787 40.6262C69.9043 54.8305 83.3132 66.6495 81.4096 80.9502C79.4938 95.3428 63.2954 102.919 48.9948 105.491C34.6942 108.063 18.6915 108.89 8.41423 119.154C-4.69632 132.247 -1.42241 155.651 10.9141 169.475C23.2506 183.299 41.867 189.566 59.9064 193.825C83.8074 199.47 109.658 202.436 132.358 193.069C155.058 183.702 172.722 158.487 166.147 134.842C163.369 124.855 156.826 116.414 150.502 108.197C144.178 99.9793 137.775 91.3865 135.363 81.3047C133.353 72.9033 134.841 63.1487 140.416 56.8467C141.431 55.7436 142.069 54.3478 142.239 52.8597C142.41 51.3715 142.104 49.8676 141.366 48.5639L141.269 48.3978Z" fill="#003320"/>
</g>
</g>
<defs>
<clipPath id="clip0_21_2373">
<rect width="384" height="315" fill="white"/>
</clipPath>
</defs>
</svg>
