<svg width="1254" height="1254" viewBox="0 0 1254 1254" fill="none" xmlns="http://www.w3.org/2000/svg">
<path d="M260.833 552.848C264.576 550.096 275.131 534.05 278.573 529.434C285.307 520.537 292.215 511.772 299.291 503.144C319.26 478.486 340.914 455.243 364.1 433.58C478.533 326.577 620.693 253.828 774.419 223.603C816.166 215.258 861.96 208.887 904.442 212.906C973.981 219.484 1037.81 250.03 1081.74 305.705C1128.75 365.3 1141.46 444.162 1134.44 518.389C1132.77 536.005 1129.79 550.984 1126.42 568.128C1131.99 566.35 1145.05 561.351 1149.7 563.738C1157.92 567.956 1147.47 576.71 1144.75 578.744C1150.39 578.777 1156.94 578.665 1162.02 578.871C1168.09 579.406 1182.83 577.012 1181.94 586.758C1181.71 589.411 1188.12 594.869 1184.77 597.144C1179.23 600.896 1181.69 605.712 1177.57 609.09C1175.65 610.657 1169.99 609.772 1169.42 612.77C1168.94 614.803 1167.96 617.375 1165.72 618.091C1152.36 622.371 1136.54 621.238 1122.57 621.838C1119.34 621.973 1112.44 620.504 1110.56 621.434L1110.71 622.053C1102.42 645.773 1085.57 680.601 1072.98 702.252C984.837 853.859 815.449 995.209 645.633 1040.81C534.551 1070.63 401.278 1057.77 301.528 999.716C244.573 966.572 192.535 916.075 175.961 850.681C154.945 767.763 186.039 677.338 227.305 606.196L206.587 598.672C200.854 596.689 195.077 594.833 189.261 593.108C156.472 583.061 125.365 578.853 91.2257 584.572C83.5841 586.53 79.4817 588.506 72.3232 591.932C71.4672 590.146 70.2114 589.45 68.6231 588.231L63.9426 588.407L61.8271 585.342C60.0622 586.02 59.0521 586.271 57.4678 587.299C57.0896 581.293 57.5209 579.594 59.7429 574.216C70.7551 553.166 82.989 553.385 102.853 543.584C113.86 536.27 136.267 512.662 149.352 530.82C161.782 548.069 162.741 546.773 186.037 547.312C210.741 547.883 235.866 548.263 260.833 552.848Z" fill="#E3E4C5"/>
<path d="M260.833 552.848C264.576 550.096 275.131 534.05 278.573 529.434C285.307 520.537 292.215 511.772 299.291 503.144C319.26 478.486 340.914 455.243 364.1 433.58C478.533 326.577 620.693 253.828 774.419 223.603C816.166 215.258 861.96 208.887 904.442 212.906C973.981 219.484 1037.81 250.03 1081.74 305.705C1128.75 365.3 1141.46 444.162 1134.44 518.389C1132.77 536.005 1129.79 550.984 1126.42 568.128C1119.91 569.929 1117.44 570.734 1111.48 573.488C1107.4 575.375 1096.58 583.392 1093.84 583.644C1064.92 586.3 1035.22 582.842 1006.04 582.875C994.163 581.449 974.808 585.429 963.707 583.209C942.796 579.027 916.228 571.751 896.255 565.25L895.845 565.35C894.504 567.441 893.763 567.476 891.179 568.603L885.35 566.178C876.374 562.909 869.357 558.505 861.109 553.753C850.859 559.074 844.442 563.257 835.631 570.608C833.047 578.522 825.638 598.28 818.456 602.188C807.214 602.612 808.647 573.024 808.046 565.275C806.865 550.005 805.389 536.827 795.525 524.192C752.755 522.83 726.089 544.455 691.115 565.017C681.599 570.609 671.76 575.466 661.859 580.338C660.965 582.235 661.277 583.999 661.357 586.145C660.518 584.531 660.646 584.621 659.532 583.228L659.814 583.591L658.76 584.209L657.303 588.372L656.875 582.078C636.797 587.167 623.865 586.346 604.133 580.447C603.51 582.264 602.965 584.135 602.405 585.976C602.04 583.817 602.065 583.384 600.933 581.437L599.216 581.06C588.554 609.218 592.309 654.113 605.468 680.84L605.677 681.808C603.784 683.038 602.854 686.449 602.37 688.714C602.105 687.575 601.973 687.741 601.114 686.7L601.035 686.161C598.075 684.269 596.938 685.69 594.401 682.573C575.197 684.722 562.551 684.845 543.308 683.124C531.547 682.071 516.902 682.622 504.754 682.046C501.055 681.428 494.387 681.091 490.394 680.724C481.046 679.873 471.717 678.813 462.415 677.552C430.435 673.033 398.736 666.702 367.472 658.601C353.71 655.068 336.498 650.353 323.105 645.553C311.958 641.555 297.926 632.125 286.313 626.461C261.641 614.632 236.388 604.058 210.649 594.779C209.506 598.053 210.165 597.651 206.587 598.672C200.854 596.689 195.077 594.833 189.261 593.108C156.472 583.061 125.365 578.853 91.2257 584.572C83.5841 586.53 79.4817 588.506 72.3232 591.932C71.4672 590.146 70.2114 589.45 68.6231 588.231L63.9426 588.407L61.8271 585.342C60.0622 586.02 59.0521 586.271 57.4678 587.299C57.0896 581.293 57.5209 579.594 59.7429 574.216C70.7551 553.166 82.989 553.385 102.853 543.584C113.86 536.27 136.267 512.662 149.352 530.82C161.782 548.069 162.741 546.773 186.037 547.312C210.741 547.883 235.866 548.263 260.833 552.848Z" fill="#E3E4C5"/>
<path d="M61.7969 584.284C67.3927 558.94 87.2687 557.112 106.727 547.086C112.343 544.192 118.979 536.722 124.608 533.312C147.542 519.42 147.48 546.595 162.966 550.251C174.473 552.449 187.481 552.433 199.06 552.465C240.67 552.582 280.94 558.162 317.07 580.374C320.145 582.264 328.663 586.758 332.265 587.11C356.82 589.511 382.005 588.131 406.699 587.944C422.863 587.906 439.027 587.754 455.19 587.49C462.663 587.351 470.558 587.357 478.025 586.579C482.499 586.171 485.905 582.724 489.666 580.535C516.74 564.771 549.515 558.516 579.561 569.432C583.095 570.716 597.938 576.505 599.648 579.182L599.216 581.059C588.554 609.218 592.309 654.113 605.468 680.84L605.677 681.807C603.784 683.038 602.854 686.449 602.369 688.714C602.104 687.575 601.973 687.741 601.114 686.7L601.035 686.161C598.075 684.269 596.938 685.689 594.4 682.573C575.197 684.722 562.551 684.844 543.308 683.124C531.547 682.071 516.902 682.622 504.753 682.046C501.055 681.428 494.387 681.091 490.394 680.724C481.046 679.872 471.717 678.813 462.414 677.552C430.434 673.033 398.736 666.702 367.472 658.601C353.71 655.068 336.498 650.353 323.105 645.553C311.958 641.554 297.926 632.125 286.312 626.461C261.641 614.631 236.388 604.057 210.649 594.779C209.506 598.053 210.165 597.65 206.587 598.672C200.854 596.688 195.077 594.833 189.26 593.108C156.471 583.06 125.365 578.853 91.2255 584.572C83.5839 586.53 79.4815 588.506 72.323 591.932C71.467 590.146 70.2112 589.45 68.6228 588.231L63.9424 588.407L61.8269 585.342L61.7969 584.284Z" fill="#FAE7DA"/>
<path d="M91.8199 579.657C96.8224 578.363 104.414 578.141 109.743 577.71C140.906 575.192 163.062 580.473 192.581 588.905C190.392 590.569 190.089 590.626 189.26 593.108C156.471 583.06 125.365 578.853 91.2253 584.572C88.6102 581.568 91.6092 581.821 91.8199 579.657Z" fill="#123A21"/>
<path d="M68.623 588.231C76.0687 584.832 83.7274 580.925 91.8202 579.657C91.6096 581.821 88.6105 581.568 91.2257 584.572C83.5841 586.53 79.4817 588.506 72.3232 591.932C71.4672 590.146 70.2114 589.45 68.623 588.231Z" fill="#143F23"/>
<path d="M192.581 588.905C197.708 590.581 205.639 593.427 210.649 594.779C209.505 598.053 210.165 597.65 206.587 598.672C200.854 596.688 195.077 594.833 189.26 593.108C190.089 590.626 190.392 590.569 192.581 588.905Z" fill="#164325"/>
<path d="M605.468 680.84L605.677 681.807C603.784 683.038 602.854 686.449 602.37 688.714C602.104 687.575 601.973 687.74 601.114 686.7L601.035 686.161C598.075 684.269 596.938 685.689 594.4 682.573C598.161 682.132 601.811 681.82 605.468 680.84Z" fill="#164325"/>
<path d="M848.514 374.308C856.927 370.722 865.958 370.167 874.586 373.545C882.748 376.703 889.312 383 892.802 391.03C895.153 396.437 895.906 401.324 895.245 407.204C972.505 431.547 954.957 507.889 909.977 555.146C905.385 559.97 900.621 561.665 896.255 565.25L895.845 565.35C894.504 567.441 893.763 567.476 891.179 568.603L885.35 566.178C876.374 562.909 869.357 558.505 861.109 553.753C850.859 559.074 844.442 563.257 835.631 570.608C833.047 578.522 825.638 598.28 818.456 602.188C807.214 602.612 808.647 573.024 808.046 565.275C806.865 550.005 805.389 536.827 795.525 524.192C752.755 522.83 726.089 544.455 691.115 565.017C681.599 570.609 671.76 575.466 661.859 580.338C660.965 582.235 661.277 583.999 661.357 586.145C660.518 584.531 660.646 584.621 659.532 583.228L659.814 583.591L658.76 584.209L657.303 588.372L656.875 582.078C636.797 587.167 623.865 586.346 604.133 580.447C603.51 582.264 602.965 584.135 602.405 585.976C602.04 583.817 602.065 583.384 600.933 581.437L599.216 581.06L599.648 579.182C597.938 576.505 583.095 570.716 579.561 569.432C549.516 558.516 516.74 564.771 489.666 580.535C485.905 582.724 482.499 586.172 478.025 586.579C470.558 587.357 462.663 587.352 455.19 587.491C439.028 587.754 422.863 587.906 406.699 587.944C382.006 588.131 356.82 589.511 332.266 587.11C328.663 586.758 320.146 582.265 317.07 580.374C280.94 558.162 240.67 552.582 199.061 552.466C187.481 552.433 174.473 552.449 162.966 550.251C147.48 546.595 147.542 519.42 124.609 533.313C118.979 536.723 112.343 544.193 106.727 547.086C87.269 557.112 67.3929 558.941 61.7971 584.285L61.8271 585.342C60.0622 586.02 59.0521 586.271 57.4678 587.299C57.0896 581.293 57.5209 579.594 59.7429 574.216C70.7551 553.166 82.989 553.385 102.853 543.584C113.86 536.27 136.267 512.662 149.352 530.82C161.782 548.069 162.741 546.773 186.037 547.312C210.741 547.883 235.866 548.263 260.833 552.848C264.864 554.672 269.85 555.588 274.134 556.815C282.013 559.072 289.774 561.555 297.273 564.904C307.565 569.5 323.508 580.589 333.171 582.596C341.339 584.294 472.652 583.287 478.025 581.602C483.078 580.017 487.716 575.834 492.386 573.324C509.441 564.156 529.509 558.726 548.904 559.103C561.238 559.443 573.417 561.942 584.889 566.484C590.009 568.496 595.577 571.155 600.562 573.529C657.015 600.426 700.189 545.212 749.161 527.266C768.461 520.194 784.816 518.412 805.444 519.61C808.451 519.785 813.79 518.009 816.809 517.189L816.38 518.365C815.315 518.838 814.776 519.156 813.643 519.432C818.866 520.773 814.91 520.532 818.033 521.634C824.738 518.275 827.573 514.125 833.126 509.401C835.27 507.573 838.79 505.019 841.178 503.136C842.574 505.233 846.211 510.016 848.875 510.007C850.173 502.449 839.531 502.876 845.501 484.931C845.005 482.821 844.289 481.693 843.297 479.794C838.9 486.556 839.335 490.296 839.476 498.083C836.041 501.393 834.418 502.835 830.579 505.621C813.3 478.952 820.513 448.626 841.962 426.926C840.774 424.926 840.713 424.577 838.588 423.531C822.338 404.85 835.759 383.28 856.651 376.32C857.282 374.037 857.674 376.977 857.919 373.61C856.351 372.768 851.434 374.388 848.514 374.308Z" fill="#143F23"/>
<path d="M845.501 484.931C854.826 467.934 860.331 485.659 864.036 487.134L864.954 486.54L865.542 483.802C867.85 483.614 871.353 484.354 873.79 484.66C879.858 485.424 885.038 484.613 890.842 482.933C896.849 481.163 902.568 478.536 907.828 475.134C920.802 466.88 924.28 459.589 941.008 462.06C953.554 487.088 921.415 545.478 897.878 558.485C878.382 569.257 864.213 539.367 857.802 538.69C857.092 541.748 860.349 545.619 862.064 548.036C854.649 551.488 832.49 563.907 830.053 571.392C827.089 580.466 823.789 590.499 816.906 598.539C813.104 588.903 813.116 581.893 812.706 571.608C812.014 554.206 810.202 539.158 800.54 524.313C806.797 524.337 812.253 524.587 818.033 521.633C824.738 518.275 827.573 514.125 833.126 509.401C835.269 507.572 838.79 505.019 841.178 503.136C842.574 505.233 846.211 510.016 848.875 510.007C850.173 502.449 839.531 502.875 845.501 484.931Z" fill="#FAE7DA"/>
<path d="M841.962 426.926C856.32 415.293 869.558 409.345 888.583 411.271C905.366 413.039 920.747 421.413 931.34 434.542C937.99 442.814 941.443 451.587 943.445 461.959C933.477 454.301 926.086 456.847 916.418 463.909C898.876 476.724 886.189 482.713 864.28 479.766C857.716 472.189 849.701 471.455 843.297 479.794C838.9 486.556 839.335 490.296 839.476 498.083C836.041 501.392 834.418 502.835 830.579 505.621C813.3 478.951 820.513 448.626 841.962 426.926Z" fill="#FAE7DA"/>
<path d="M856.651 376.319C866.215 375.657 873.208 376.223 881.229 382.458C886.268 386.377 894.032 399.97 890.279 405.994C887.628 406.365 883.684 406.572 880.96 406.488C865.511 406.014 849.818 413.191 838.588 423.531C822.338 404.85 835.759 383.28 856.651 376.319Z" fill="#FAE7DA"/>
<path d="M59.7429 574.216C61.9887 577.348 61.7861 580.454 61.7971 584.284L61.8271 585.342C60.0622 586.02 59.0521 586.271 57.4678 587.299C57.0896 581.293 57.5209 579.594 59.7429 574.216Z" fill="#123A21"/>
<path d="M885.35 566.178C888.252 563.901 891.797 564.97 895.844 565.349C894.503 567.441 893.763 567.475 891.179 568.603L885.35 566.178Z" fill="#164325"/>
<path d="M848.513 374.308C851.434 374.387 856.351 372.768 857.918 373.609C857.673 376.976 857.282 374.037 856.651 376.319C835.759 383.28 822.337 404.85 838.588 423.531C840.713 424.577 840.774 424.926 841.962 426.926C820.513 448.626 813.3 478.951 830.579 505.621C834.418 502.835 836.041 501.392 839.476 498.083C839.335 490.296 838.9 486.556 843.297 479.794C844.288 481.693 845.005 482.82 845.501 484.931C839.531 502.875 850.173 502.449 848.875 510.007C846.211 510.016 842.574 505.233 841.178 503.136C838.79 505.018 835.269 507.572 833.126 509.401C827.573 514.125 824.738 518.275 818.033 521.633C814.91 520.532 818.866 520.773 813.643 519.431C814.775 519.155 815.314 518.837 816.38 518.365L816.808 517.189C821.492 514.403 823.384 512.871 826.703 508.723C812.528 486.036 813.575 457.11 828.73 435.244C830.701 432.401 833.053 429.536 835.208 426.826C832.52 423.924 830.463 420.493 829.171 416.751C823.58 400.768 832.183 379.886 848.513 374.308Z" fill="#123A21"/>
<path d="M661.356 586.145C661.277 583.999 660.965 582.235 661.859 580.337C671.76 575.466 681.599 570.609 691.114 565.016C726.089 544.455 752.755 522.83 795.525 524.192C805.389 536.827 806.865 550.004 808.046 565.275C808.646 573.024 807.214 602.612 818.456 602.188C825.638 598.28 833.047 578.522 835.631 570.608C844.442 563.257 850.859 559.074 861.109 553.752C869.356 558.505 876.373 562.909 885.35 566.178L891.179 568.603C893.763 567.475 894.504 567.44 895.845 565.349L896.255 565.25C916.228 571.751 942.796 579.027 963.706 583.209C974.807 585.429 994.162 581.449 1006.04 582.875C1035.22 582.842 1064.92 586.299 1093.84 583.644C1096.58 583.392 1107.4 575.375 1111.48 573.488C1117.44 570.733 1119.91 569.929 1126.42 568.127C1131.99 566.349 1145.05 561.351 1149.7 563.738C1157.92 567.956 1147.47 576.71 1144.75 578.744C1150.39 578.777 1156.94 578.665 1162.02 578.87C1168.09 579.406 1182.83 577.011 1181.94 586.757C1181.71 589.411 1188.12 594.869 1184.77 597.143C1179.23 600.896 1181.69 605.711 1177.57 609.09C1175.65 610.657 1169.99 609.772 1169.42 612.77C1168.94 614.803 1167.96 617.374 1165.72 618.091C1152.36 622.371 1136.54 621.238 1122.57 621.838C1119.34 621.973 1112.44 620.503 1110.56 621.434L1110.71 622.052C1105.22 614.54 1078.37 620.436 1070.19 621.863C1038.1 627.484 1006 634.605 973.332 635.762C959.371 636.24 945.815 633.27 932.087 631.304C898.998 626.528 865.431 617.644 832.63 612.66C821.554 629.48 814.359 648.657 796.89 660.309C795.978 677.013 794.974 693.925 794.747 710.647C794.576 723.407 796.008 736.309 795.696 749.087C795.157 772.386 793.455 795.463 793.265 818.792C790.479 824.364 796.492 839.145 790.853 844.166L789.481 844.478C790.081 848.905 790.02 852.91 793.014 856.081C802.646 859.265 810.428 859.327 820.427 860.71C830.977 862.168 840.829 865.248 850.595 869.424C853.639 870.648 862.088 874.236 863.001 877.402L862.333 878.382L861.525 878.516C860.104 879.386 860.019 879.22 859.008 880.421C857.19 882.802 856.486 882.564 853.192 883.041C854.937 883.598 857.318 883.96 858.329 884.994C857.147 887.26 857.141 885.393 855.604 887.107C850.632 886.813 848.911 889.746 845.574 889.605C831.387 889.011 818.119 888.668 803.883 889.207C787.534 889.464 771.792 890.346 766.771 871.163C762.858 856.228 759.858 840.841 757.207 825.619C751.898 794.839 744.936 764.15 745.769 732.733C746.295 712.808 743.779 692.265 741.948 672.378L734.796 670.774C729.61 670.082 727.473 669.861 722.287 670.014C722.74 668.312 722.893 667.908 723.034 666.114L721.405 665.281C712.031 665.587 701.413 667.437 692.088 668.863C675.286 647.726 667.094 623.767 662.771 597.396C662.269 593.65 661.797 589.899 661.356 586.145Z" fill="#123A21"/>
<path d="M661.356 586.145C661.277 583.999 660.965 582.235 661.859 580.337C671.76 575.466 681.599 570.609 691.114 565.016C726.089 544.455 752.755 522.83 795.525 524.192C805.389 536.827 806.865 550.004 808.046 565.275C808.646 573.024 807.214 602.612 818.456 602.188C825.638 598.28 833.047 578.522 835.631 570.608C844.442 563.257 850.859 559.074 861.109 553.752C869.356 558.505 876.373 562.909 885.35 566.178L891.179 568.603C893.481 569.394 894.057 569.105 895.067 570.703C894.259 581.059 880.972 607.092 875.694 616.015C867.446 614.368 842.795 608.902 835.447 608.458C837.155 605.979 844.276 596.345 844.778 594.324L843.982 593.168C841.411 593.363 839.556 595.964 837.798 597.9C823.323 613.841 814.261 641.769 797.343 654.223C797.833 647.255 798.739 636.35 799.18 629.792C799.609 623.412 803.821 596.603 802.738 592.481L801.868 592.381C797.068 598 795.176 622.653 794.618 630.827C779.225 625.72 759.46 625.518 744.054 630.392C743.43 622.273 742.775 592.939 739.603 588.338L738.684 588.275C734.925 595.071 743.344 664.595 740.583 667.081L738.231 666.714C737.08 668.128 736.039 669.426 734.796 670.774C729.61 670.082 727.473 669.861 722.287 670.014C722.74 668.312 722.893 667.908 723.034 666.114L721.405 665.281C712.031 665.587 701.413 667.437 692.088 668.863C675.286 647.726 667.094 623.767 662.771 597.396C662.269 593.65 661.797 589.899 661.356 586.145Z" fill="#FAE7DA"/>
<path d="M721.405 665.282C728.018 664.933 731.71 665.447 738.231 666.714C737.08 668.129 736.039 669.427 734.796 670.774C729.61 670.082 727.473 669.862 722.287 670.015C722.74 668.312 722.893 667.908 723.034 666.114L721.405 665.282Z" fill="#164325"/>
<path d="M744.532 635.248C762.631 630.527 776.163 630.221 794.098 635.297C791.587 659.611 790.883 688.12 790.081 712.625C789.695 724.405 791.642 738.69 791.202 751.671C790.179 782.048 787.485 814.218 789.481 844.478C790.081 848.905 790.02 852.91 793.014 856.081C802.646 859.265 810.428 859.327 820.427 860.71C830.977 862.168 840.829 865.248 850.595 869.424C853.638 870.648 862.088 874.236 863 877.402L862.333 878.382L861.525 878.516C860.104 879.386 860.019 879.22 859.008 880.421C857.19 882.802 856.486 882.564 853.191 883.041C854.936 883.598 857.318 883.96 858.329 884.994C857.147 887.26 857.141 885.392 855.604 887.107C850.632 886.813 848.911 889.746 845.574 889.605C831.387 889.011 818.119 888.668 803.882 889.207C805.603 888.38 805.554 888.276 806.913 886.88L806.815 885.833L804.801 884.78C792.506 885.031 774.829 886.25 771.185 870.856C762.325 833.438 755.596 795.016 750.93 756.845C750.44 750.777 749.957 744.391 750.183 738.286C751.457 704.003 744.397 669.482 744.532 635.248Z" fill="#FAE7DA"/>
<path d="M804.801 884.781C818.303 883.66 830.898 884.187 844.326 885.344C845.532 885.448 846.818 885.24 847.797 884.481L847.626 883.495C842.366 878.113 823.33 878.529 818.499 875.345L818.425 874.218C823.672 871.873 848.03 878.094 853.192 883.042C854.937 883.599 857.319 883.96 858.329 884.995C857.147 887.26 857.141 885.393 855.604 887.107C850.632 886.813 848.912 889.746 845.575 889.606C831.388 889.012 818.119 888.669 803.883 889.208C805.603 888.381 805.554 888.277 806.914 886.881L806.816 885.834L804.801 884.781Z" fill="#143F23"/>
<path d="M859.008 880.421C851.385 875.939 843.082 872.816 834.522 870.63C831.51 869.859 823.115 869.326 822.147 866.717C824.156 865.713 827.377 866.662 829.593 866.981C841.509 868.714 851.103 872.638 861.525 878.517C860.104 879.386 860.019 879.221 859.008 880.421Z" fill="#123A21"/>
<path d="M1144.62 567.611C1146.09 567.514 1146.01 567.562 1147.42 568.054L1147.78 569.121C1144.72 576.126 1129.27 577.929 1127.22 588.64L1128.28 588.858C1131.16 587.344 1131.45 586.535 1133.43 583.785C1140.72 583.342 1172.56 582.682 1177.63 585.717L1177.82 586.835C1173.88 590.627 1152.16 587.71 1147.69 590.687L1147.91 591.743C1153.87 595.152 1178.4 589.589 1180.8 594.931C1177.61 601.355 1153.48 596.147 1148.27 599.931L1148.5 600.841C1154.38 604.255 1173.22 598.736 1175.43 604.033C1172.39 610.093 1151.96 604.772 1145.63 608.619L1145.68 609.662C1149.47 612.972 1162.75 608.073 1164.76 612.972L1164.26 613.952C1159.73 616.407 1121.52 618.042 1115.66 616.548C1093.73 610.971 1081.77 614.919 1059.86 618.844C1041.72 622.267 1023.52 625.322 1005.26 628.01C987.464 630.239 969.517 632.499 951.668 629.584C928.064 625.727 903.976 622.316 880.727 616.677C889.189 601.582 895.14 588.217 899.861 571.586C913.522 575.401 927.219 579.079 940.953 582.617C944.406 583.501 959.53 587.496 962.769 587.738C976.577 588.77 992.472 587.426 1006.6 587.653C1028.91 588.141 1052.61 588.91 1074.77 589.109C1096.55 589.305 1096.38 588.442 1114.16 577.266C1118.31 574.652 1138.18 569.736 1144.62 567.611Z" fill="#FAE7DA"/>
<path d="M499.597 686.253C510.935 687.251 522.81 686.688 533.733 687.741C557.685 690.043 577.243 689.651 601.114 686.7C601.973 687.741 602.104 687.576 602.37 688.714C602.137 690.772 601.823 693.049 601.695 695.095L601.475 696.062C598.623 709.086 597.784 725.361 595.797 738.917C592.048 764.499 577.681 850.908 555.92 864.36C549.729 868.187 541.025 869.087 533.911 869.393C512.91 870.287 491.285 867.544 470.423 865.211C446.442 862.382 422.444 859.694 398.43 857.159C382.071 855.463 365.065 853.675 348.616 854.429C329.432 855.31 272.358 870.924 260.358 868.285C259.4 868.077 258.727 867.63 257.967 867.042C255.828 861.292 260.451 858.219 264.126 854.79C279.448 840.505 303.406 842.238 314.812 823.03C315.695 821.603 318.277 817.647 318.745 816.251C340.165 787.895 345.053 816.808 361.799 820.997C369.305 822.876 395.727 818.37 404.569 816.9C437.244 811.463 462.677 806.797 496.02 812.186C500.159 813.257 504.082 815.29 508.106 814.586C509.81 813 509.275 813.582 509.781 810.808C510.529 797.564 507.645 772.937 506.161 759.123C503.498 734.331 501.214 711.168 499.597 686.253Z" fill="#FAE7DA"/>
<path d="M604.133 580.447C623.865 586.346 636.797 587.167 656.874 582.078L657.303 588.372L658.76 584.209L659.813 583.591L659.532 583.228C660.646 584.621 660.518 584.531 661.356 586.145C661.797 589.899 662.269 593.65 662.771 597.396C667.094 623.767 675.286 647.727 692.088 668.863C701.413 667.437 712.031 665.588 721.405 665.281L723.034 666.114C722.893 667.908 722.74 668.312 722.287 670.015C710.322 671.245 698.382 672.715 686.473 674.423C668.367 677.276 650.225 679.86 632.045 682.163C623.853 683.271 615.023 684.82 606.905 685.726C606.757 687.441 606.426 692.866 605.698 694.164C603.543 691.776 606.008 691.941 605.215 687.318L603.994 686.743L603.335 687.496C603.759 691.335 603.829 691.862 601.695 695.095C601.823 693.049 602.137 690.772 602.369 688.714C602.854 686.449 603.784 683.038 605.676 681.808L605.468 680.84C592.309 654.113 588.554 609.218 599.216 581.06L600.932 581.437C602.065 583.384 602.039 583.817 602.404 585.976C602.965 584.135 603.51 582.264 604.133 580.447Z" fill="#FAE7DA"/>
<path d="M599.216 581.06L600.932 581.437C602.065 583.384 602.039 583.817 602.404 585.976C593.89 615.336 596.365 653.274 610.43 680.601C628.916 676.713 648.62 675.452 667.302 672.47C672.574 671.625 678.691 670.523 683.957 670.143L685.775 669.684C686.191 668.392 680.068 659.961 678.715 657.597C668.177 639.179 662.906 622.304 659.158 601.665C662.82 600.869 662.189 600.756 662.771 597.396C667.094 623.767 675.286 647.727 692.088 668.863C701.413 667.437 712.031 665.588 721.405 665.281L723.034 666.114C722.893 667.908 722.74 668.312 722.287 670.015C710.322 671.245 698.382 672.715 686.473 674.423C668.367 677.276 650.225 679.86 632.045 682.163C623.853 683.271 615.023 684.82 606.905 685.726C606.757 687.441 606.426 692.866 605.698 694.164C603.543 691.776 606.008 691.941 605.215 687.318L603.994 686.743L603.335 687.496C603.759 691.335 603.829 691.862 601.695 695.095C601.823 693.049 602.137 690.772 602.369 688.714C602.854 686.449 603.784 683.038 605.676 681.808L605.468 680.84C592.309 654.113 588.554 609.218 599.216 581.06Z" fill="#123A21"/>
<path d="M657.303 588.371L658.76 584.209L659.813 583.591L659.532 583.228C660.646 584.621 660.517 584.53 661.356 586.145C661.797 589.899 662.269 593.65 662.771 597.396C662.189 600.756 662.82 600.869 659.158 601.665C658.252 596.821 657.793 593.287 657.303 588.371Z" fill="#164325"/>
<path d="M601.694 695.095C603.829 691.862 603.759 691.335 603.335 687.496L603.994 686.743L605.215 687.318C606.008 691.941 603.543 691.776 605.698 694.164C605.244 706.238 603.223 718.356 601.538 730.302C597.024 762.319 584.641 843.946 561.197 865.94C550.925 875.577 532.314 874.494 519.303 873.955C477.664 872.234 436.547 865.254 395.086 861.623C379.364 860.245 362.975 858.335 347.208 859.327C332.328 860.264 317.543 864.262 302.944 867.177C293.652 869.032 261.073 876.974 254.995 870.452C253.18 868.511 252.674 866.056 252.911 863.466C253.453 857.545 258.834 852.818 263.244 849.365C267.951 845.709 273.105 842.666 278.582 840.315C287.62 836.39 298.741 833.831 305.823 827.04C310.373 822.68 312.797 816.466 316.374 812.002C316.497 815.976 313.923 815.988 314.103 819.105C316.626 817.874 316.582 817.415 318.356 815.321L318.745 816.251C318.276 817.647 315.694 821.603 314.811 823.03C303.406 842.237 279.448 840.505 264.126 854.79C260.451 858.219 255.828 861.292 257.966 867.042C258.727 867.63 259.4 868.077 260.358 868.285C272.358 870.924 329.432 855.31 348.615 854.429C365.064 853.675 382.071 855.463 398.43 857.159C422.444 859.694 446.442 862.382 470.423 865.211C491.284 867.544 512.91 870.287 533.911 869.393C541.025 869.087 549.729 868.187 555.919 864.36C577.681 850.908 592.048 764.499 595.797 738.917C597.784 725.361 598.623 709.086 601.475 696.062L601.694 695.095Z" fill="#153E22"/>
<path d="M210.649 594.779C236.388 604.058 261.641 614.632 286.313 626.461C297.926 632.125 311.958 641.555 323.105 645.553C336.498 650.353 353.71 655.068 367.472 658.601C398.736 666.702 430.434 673.033 462.415 677.552C471.717 678.813 481.046 679.873 490.394 680.724C494.387 681.091 501.055 681.428 504.754 682.046C516.902 682.622 531.547 682.071 543.308 683.124C562.551 684.845 575.197 684.722 594.4 682.573C596.938 685.69 598.075 684.269 601.035 686.161L601.114 686.7C577.243 689.651 557.685 690.043 533.733 687.741C522.81 686.688 510.935 687.251 499.597 686.253C501.214 711.168 503.498 734.331 506.161 759.123C507.645 772.937 510.529 797.564 509.781 810.808C509.275 813.582 509.811 813 508.107 814.586C504.082 815.29 500.159 813.257 496.02 812.186C496.674 809.822 496.648 809.785 497.884 807.691L500.341 808.677C502.207 809.112 502.626 809.185 504.534 809.314C508.059 804.268 494.878 703.997 495.416 686.896C493.648 685.414 477.134 684.214 473.371 683.779C448.071 680.65 422.926 676.364 398.018 670.933C381.634 667.18 365.339 663.04 349.149 658.522C338.299 655.454 326.442 652.129 316.114 647.659C307.329 643.857 298.778 637.777 290.143 633.601C270.469 624.073 247.93 613.248 227.305 606.196L206.587 598.672C210.165 597.651 209.506 598.053 210.649 594.779Z" fill="#143F23"/>
<path d="M316.374 812.002C318.125 808.671 321.894 805.193 324.916 803.062C343.404 789.989 351.386 814.849 362.717 816.459C370.958 817.623 392.963 813.783 401.959 812.351C436.915 806.785 462.512 801.66 497.884 807.691C496.648 809.785 496.674 809.822 496.02 812.185C462.677 806.797 437.244 811.463 404.569 816.9C395.727 818.37 369.305 822.876 361.799 820.996C345.053 816.808 340.165 787.895 318.745 816.251L318.356 815.32C316.582 817.415 316.627 817.874 314.103 819.104C313.923 815.988 316.497 815.976 316.374 812.002Z" fill="#164325"/>
<path d="M789.481 844.478L790.853 844.166C796.492 839.145 790.479 824.364 793.265 818.792C793.357 829.838 792.867 842.035 795.292 852.671L796.198 852.873C802.639 854.257 810.808 854.789 817.506 855.598C831.118 857.239 841.974 860.447 854.373 866.068C853.155 868.254 852.934 868.254 850.595 869.424C840.829 865.248 830.977 862.168 820.427 860.71C810.428 859.327 802.646 859.265 793.014 856.081C790.02 852.91 790.081 848.905 789.481 844.478Z" fill="#143F23"/>
<path d="M854.373 866.068C860.214 868.842 869.791 872.669 866.282 881.064C865.033 884.052 858.88 887.879 855.604 887.107C857.141 885.393 857.147 887.26 858.329 884.995C857.318 883.96 854.936 883.599 853.191 883.042C856.486 882.564 857.19 882.803 859.008 880.421C860.019 879.221 860.104 879.386 861.525 878.517L862.333 878.382L863.001 877.402C862.088 874.237 853.638 870.648 850.595 869.424C852.934 868.254 853.155 868.254 854.373 866.068Z" fill="#164325"/>
<path d="M63.9422 588.407L68.6227 588.23C70.211 589.45 71.4668 590.146 72.3228 591.932C67.6877 593.294 66.0565 593.575 61.4336 592.254C62.2535 590.866 63.0409 589.734 63.9422 588.407Z" fill="#123A21"/>
<path d="M61.8271 585.342L63.9426 588.407C63.0413 589.734 62.2539 590.866 61.434 592.254C59.1747 590.249 58.8957 589.952 57.4678 587.299C59.0521 586.271 60.0622 586.02 61.8271 585.342Z" fill="#164325"/>
</svg>
