<svg width="1254" height="1254" viewBox="0 0 1254 1254" fill="none" xmlns="http://www.w3.org/2000/svg">
<path d="M515.593 229.452C512.61 227.861 509.481 226.258 506.715 224.317C485.214 209.226 480.249 180.85 489.984 157.452C497.096 140.517 510.564 127.045 527.496 119.928C543.607 113.282 558.48 113.403 574.396 120.102C592.649 129.816 601.668 143.44 601.243 164.264L602.174 164.363C607.895 164.915 614.289 163.763 620.369 164.491C656.428 168.806 680.877 184.16 700.881 213.936C714.052 207.573 737.723 199.976 752.217 195.348C829.165 170.786 913.332 155.365 991.842 182.26C1040.65 198.981 1079.46 230.284 1102.32 277.012C1145.16 364.569 1124.61 475.347 1093.57 563.704C1060.89 654.033 1014.3 738.709 955.502 814.677C941.119 833.408 927.428 848.96 912.518 866.76C932.516 875.632 951.491 888.27 958.784 909.64C981.249 975.524 904.007 1018.52 855.029 1036.75C845.109 1040.46 835.043 1043.79 824.86 1046.72C822.711 1047.3 820.06 1047.93 817.984 1048.58C810.477 1050.37 802.615 1052.39 794.986 1053.4C799.78 1057.95 805.487 1063.49 807.055 1070.16C810.667 1081.57 804.042 1091.54 792.739 1094.43C779.74 1098.14 757.146 1096.52 743.344 1095.74C710.91 1094.19 678.55 1091.29 646.361 1087.03L602.319 1080.71C594.418 1079.55 584.592 1077.71 576.876 1077.45C568.457 1081.26 545.525 1087.36 536.29 1089.86C472.264 1107.17 402.047 1116.48 336.782 1100.07C268.86 1082.98 213.488 1044.11 176.961 984.035C131.021 908.476 129.96 821.548 150.916 737.49C191.141 576.148 312.904 445.747 443.632 349.682C467.83 331.9 489.533 316.661 515.254 301.244C511.057 288.042 508.302 270.604 509.97 256.867C510.003 255.771 510.206 254.147 510.31 253.008C511.363 243.85 512.853 238.284 515.593 229.452Z" fill="#FBEBE2"/>
<path d="M700.881 213.936C714.051 207.573 737.723 199.976 752.216 195.348C829.165 170.786 913.332 155.365 991.842 182.26C1040.65 198.981 1079.46 230.284 1102.32 277.012C1145.16 364.569 1124.61 475.347 1093.57 563.704C1060.89 654.033 1014.3 738.709 955.501 814.678C941.118 833.408 927.427 848.96 912.518 866.76C909.364 866.136 905.421 864.764 902.28 863.809C854.147 849.211 801.262 860.447 756.496 881.468C769.416 864.715 784.105 840.186 794.545 821.817C803.84 805.456 814.812 781.772 818.798 763.391C825.001 734.802 817.88 697.017 812.81 668.202L801.727 607.42C800.656 601.416 794.863 577.067 795.965 573.118C797.753 566.731 794.018 557.266 792.494 550.874C784.221 518.966 773.622 484.472 745.628 464.328C723.267 448.242 696.907 446.965 671.178 441.073L664.179 439.227C653.623 435.692 641.763 430.773 636.46 420.274C635.186 417.759 633.564 411.108 634.403 408.554L636.203 408.622C636.717 406.982 638.04 405.298 639.032 403.834C648.865 404.699 656.495 401.921 663.175 394.246C691.053 362.217 707.083 316.225 708.553 273.965C708.792 267.209 708.247 260.282 707.187 253.656C706.495 249.264 704.457 243.19 704.548 238.984L707.438 238.073C706.698 225.082 705.038 225.836 701.236 214.976L700.881 213.936Z" fill="#DFE2C1"/>
<path d="M707.439 238.073C718.638 256.278 713.519 294.162 708.277 315.138C700.728 345.338 683.669 386.78 657.836 405.659C651.841 410.042 643.287 410.416 636.203 408.622C636.717 406.982 638.04 405.298 639.032 403.834C648.866 404.699 656.495 401.921 663.175 394.246C691.053 362.217 707.083 316.225 708.553 273.965C708.792 267.209 708.247 260.282 707.188 253.657C706.496 249.264 704.457 243.19 704.549 238.984L707.439 238.073Z" fill="#133721"/>
<path d="M515.254 301.244C520.413 313.042 533.215 342.059 546.875 345.732C545.549 372.382 546.96 410.593 524.775 430.216C502.464 449.948 465.353 450.032 440.23 465.682C402.745 488.11 393.761 530.056 381.822 568.912C380.603 575.387 379.983 581.37 378.365 587.814C368.03 628.959 354.471 670.97 352.014 713.537C350.318 742.909 358.875 783.438 396.954 778.435C399.316 777.841 401.88 776.862 404.2 776.047C427.666 765.607 444.289 749.951 462.096 732.09C443.139 768.498 431.017 813.018 440.064 854.428C440.504 856.443 441.806 859.425 443.332 860.845L441.474 860.907C440.235 862.327 440.449 862.499 440.272 864.458C438.411 863.766 436.54 863.099 434.661 862.456C387.696 846.499 333.653 841.196 287.85 863.76C272.02 872.54 259.608 882.827 252.513 900.088C254.462 901.655 255.459 902.574 256.536 904.931C231.672 975.138 340.7 1022.74 393.419 1036.2L401.747 1038.44C402.735 1040.77 401.947 1041.45 401.094 1044.38L402.803 1045.28C401.833 1046.55 402.261 1046.1 400.779 1046.9C396.461 1049.25 391.701 1055.29 389.706 1059.91C387.815 1064.57 387.365 1067.36 388.818 1072.37C391.116 1077.68 394.624 1080.63 399.958 1082.83C421.437 1091.68 497.188 1080.39 523.332 1077.08C533.094 1075.84 543.77 1073.49 553.559 1073.62C561.084 1073.71 569.572 1075.64 576.876 1077.45C568.457 1081.26 545.525 1087.36 536.29 1089.86C472.264 1107.17 402.047 1116.48 336.782 1100.07C268.86 1082.98 213.488 1044.11 176.961 984.035C131.021 908.476 129.96 821.548 150.916 737.49C191.141 576.148 312.904 445.747 443.632 349.682C467.83 331.9 489.533 316.661 515.254 301.244Z" fill="#DFE2C1"/>
<path d="M252.514 900.088C254.463 901.655 255.459 902.574 256.536 904.931C231.673 975.138 340.7 1022.74 393.42 1036.2C391.858 1037.29 389.073 1039.11 387.719 1040.27C378.158 1038.02 360.689 1031.65 351.291 1027.9C314.666 1013.27 269.539 988.872 253.396 951.068C246.356 934.861 246.039 916.528 252.514 900.088Z" fill="#11381E"/>
<path d="M393.419 1036.2L401.747 1038.44C402.735 1040.77 401.947 1041.45 401.094 1044.38L387.719 1040.27C389.073 1039.11 391.857 1037.29 393.419 1036.2Z" fill="#11311F"/>
<path d="M679.652 454.182C678.177 474.009 664.008 494.556 649.937 508.229C647.188 510.902 641.941 513.5 641.298 516.996C643.588 518.205 666.145 511.978 655.436 529.795C655.436 533.012 659.024 534.267 658.601 538.072C657.965 543.849 652.246 546.55 649.649 551.103C647.574 554.753 655.889 557.983 641.977 572.023C632.34 581.75 620.596 589.949 609.774 598.348C608.607 595.767 607.874 595.953 605.461 595.292L598.054 600.774C589.449 606.998 584.163 610.177 574.577 614.564C563.302 619.726 548.152 623.154 539.265 631.733C528.007 642.595 517.435 657.358 507.729 669.69C482.362 701.927 436.52 760.617 396.488 772.557L394.321 772.771C392.519 773.788 387.99 774.069 386.008 773.641C355.548 767.175 355.789 724.081 358.661 699.974C362.362 668.912 371.198 637.635 378.762 607.283C381.075 598.004 384.113 588.15 385.572 578.766L385.753 577.559C410.943 580.569 430.727 589.781 448.862 607.821C448.532 622.163 449.283 628.298 453.588 641.83C434.781 656.029 397.492 683.65 386.177 702.381C389.054 700.317 391.713 697.892 394.429 695.602C434.579 661.785 478.748 632.535 515.326 594.562C526.606 582.853 529.938 558.231 542.339 547.021C550.198 539.918 566.619 518.272 574.313 513.381C576.226 513.789 575.42 513.33 576.73 514.939C577.963 520.852 573.03 528.988 570.235 534.376C574.119 535.927 572.792 536.268 575.538 539.299C577.991 538.176 579.427 537.361 581.763 535.985C600.768 527.026 612.685 519.162 634.14 514.107L634.36 513.811C636.418 512.971 637.097 512.89 638.438 511.099L639.13 510.329C646.233 502.508 652.166 499.437 659.263 489.524C663.647 483.331 667.59 476.834 671.056 470.081C673.437 465.466 676.781 458.236 679.652 454.182Z" fill="#FBEBE2"/>
<path d="M679.652 454.182C678.176 474.009 664.007 494.556 649.937 508.229C647.187 510.902 641.94 513.5 641.297 516.996C643.587 518.205 666.144 511.978 655.435 529.795C655.435 533.012 659.023 534.267 658.601 538.072C657.964 543.849 652.245 546.55 649.649 551.103C647.573 554.753 655.888 557.983 641.977 572.023C632.339 581.75 620.595 589.949 609.774 598.348C608.607 595.767 607.874 595.953 605.46 595.292C612.115 590.132 649.275 563.519 645.442 556.494C640.385 555.917 615.654 578.17 607.754 577.205C608.111 570.412 655.619 547.55 653.108 535.149L652.208 534.762C642.381 536.602 609.599 563.976 602.307 561.746C602.852 555.16 657.903 530.086 652.098 521.246C644.506 517.854 599.886 548.899 593.414 547.608C593.305 540.815 634.231 524.81 636.552 517.661C636.013 515.223 636.325 516.068 634.139 514.107L634.36 513.811C636.417 512.971 637.097 512.89 638.438 511.099L639.13 510.329C646.232 502.508 652.166 499.437 659.262 489.524C663.646 483.331 667.589 476.834 671.055 470.081C673.437 465.466 676.78 458.236 679.652 454.182Z" fill="#193824"/>
<path d="M555.535 549.647C560.116 542.99 566.01 540.751 570.235 534.376C574.119 535.927 572.792 536.268 575.538 539.299C571.716 542.112 560.108 547.944 555.535 549.647Z" fill="#16452C"/>
<path d="M746.265 588.899C763.159 579.725 772.111 576.494 791.514 574.436C794.588 603.617 801.538 633.986 806.363 663.077C811.304 692.86 819.668 730.216 813.986 759.858C810.135 779.96 797.95 804.807 787.975 822.442C771.18 851.532 752.253 879.349 731.362 905.654C725.918 912.377 717.475 922.07 710.929 927.446C711.339 930.777 710.8 930.495 713.017 932.993C702.945 941.259 692.266 948.754 681.067 955.41C652.466 972.15 622.439 978.647 589.906 970.117C583.431 968.415 566.339 963.798 564.145 957.718C562.319 953.677 555.751 953.34 553.6 949.323C551.76 946.911 552.934 941.131 556.269 940.58C560.855 939.827 560.824 933.538 562.044 932.761C570.872 927.133 584.287 929.368 594.397 928.487C598.96 928.089 602.516 927.85 606.818 927.299C610.566 926.937 615.091 926.074 618.869 925.456C611.804 924.96 599.351 926.172 595.585 918.335C593.687 914.385 595.595 909.609 599.501 907.662C606.518 904.08 615.367 902.378 622.598 899.678C640.624 892.967 657.475 886.017 677.105 889.048C681.998 889.807 685.586 888.846 690.331 887.389C708.639 869.607 733.541 802.125 741.079 777.131L741.82 777.841C742.94 775.27 744.055 769.661 744.949 768.54C745.983 769.796 746.369 769.973 747.079 771.486C746.4 775.435 744.098 778.876 745.463 781.246C749.21 769.098 753.496 755.572 754.299 742.866C755.701 720.707 739.548 672.702 732.415 649.165C741.808 629.866 741.244 614.607 738.789 594.054C741.165 592.327 743.828 590.575 746.265 588.899Z" fill="#FBEBE2"/>
<path d="M713.017 932.993C702.945 941.259 692.266 948.754 681.067 955.41C652.466 972.15 622.439 978.647 589.906 970.117C583.431 968.415 566.339 963.798 564.145 957.718C562.319 953.677 555.751 953.34 553.6 949.323C551.76 946.911 552.934 941.131 556.269 940.58C560.855 939.827 560.824 933.538 562.044 932.761C570.872 927.134 584.287 929.368 594.397 928.487C598.96 928.089 602.516 927.85 606.818 927.299C610.164 929.075 609.727 927.036 612.819 928.309C612.985 929.479 613.132 929.338 612.85 930.36C611.58 930.605 608.033 931.065 607.338 931.756L609.054 932.283L608.405 932.375C594.854 934.261 583.215 932.92 570.082 934.744C568.38 934.977 566.984 935.767 565.831 937.059C565.75 943.562 599.564 945.184 605.566 945.705C610.76 946.152 628.801 943.819 632.321 945.748C626.315 952.967 582.648 949.868 573.323 946.746C569.042 945.313 560.831 942.135 557.421 945.503C558.75 949.128 567.696 951.424 571.262 952.428C571.659 953.983 572.2 955.471 572.152 957.014L570.832 957.369L570.923 958.196C578.957 962.855 601.375 967.221 610.832 968.054C647.133 971.256 684.061 950.922 710.929 927.446C711.339 930.777 710.8 930.495 713.017 932.993Z" fill="#133721"/>
<path d="M741.078 777.131L741.819 777.841C742.94 775.27 744.054 769.661 744.948 768.541C745.983 769.796 746.368 769.973 747.079 771.486C746.399 775.435 744.097 778.876 745.462 781.246C738.953 804.667 710.634 880.635 691.243 892.391C682.854 897.474 669.285 892.477 659.642 893.861C646.367 895.759 634.219 901.76 621.532 905.721C615.978 907.46 607.992 908.55 602.998 911.336C601.184 912.346 600.574 913.314 599.946 915.249C603.697 927.085 638.144 913.265 646.991 917.973C644.309 923.117 615.611 931.493 609.054 932.283L607.337 931.756C608.032 931.065 611.579 930.605 612.849 930.36C613.131 929.338 612.984 929.479 612.819 928.309C609.727 927.036 610.164 929.075 606.817 927.299C610.565 926.938 615.09 926.074 618.868 925.456C611.803 924.96 599.35 926.172 595.585 918.335C593.687 914.385 595.594 909.609 599.5 907.662C606.517 904.08 615.366 902.378 622.597 899.678C640.623 892.967 657.474 886.017 677.104 889.048C681.997 889.807 685.585 888.846 690.33 887.389C708.638 869.608 733.541 802.125 741.078 777.131Z" fill="#11311F"/>
<path d="M571.262 952.428C585.407 955.722 600.947 959.549 615.544 959.512C624.918 959.488 633.325 957.608 643.005 958.245C625.102 965.464 605.998 964.46 587.388 960.988C583.061 960.179 576.124 958.826 572.151 957.014C572.199 955.471 571.658 953.983 571.262 952.428Z" fill="#133721"/>
<path d="M722.587 546.875C727.7 557.613 734.055 576.723 737.264 588.282L742.162 585.115C756.582 575.258 773.886 569.974 791.226 568.786C789.677 563.243 788.698 559.054 787.614 553.403C787.669 552.658 787.828 552.492 788.11 551.767C789.567 551.451 791.024 551.154 792.494 550.874C794.019 557.266 797.754 566.731 795.966 573.118C794.863 577.067 800.656 601.416 801.727 607.42L812.81 668.202C817.88 697.017 825.001 734.802 818.798 763.391C814.812 781.772 803.84 805.456 794.545 821.817C784.105 840.186 769.416 864.715 756.496 881.468C801.262 860.447 854.147 849.211 902.28 863.809C905.421 864.764 909.364 866.136 912.518 866.76C932.516 875.632 951.491 888.27 958.784 909.64C981.249 975.524 904.007 1018.52 855.029 1036.75C845.109 1040.46 835.043 1043.79 824.86 1046.72L824.523 1040.6C859.174 1030.86 899.017 1013.7 926.65 990.066C942.398 976.381 956.077 956.861 957.081 935.418C959.408 885.607 907.448 864.825 865.481 863.233C830.971 861.923 800.87 869.203 769.196 881.964C747.232 890.805 749.296 891.969 735.188 909.517C728.447 917.924 721.032 925.78 713.017 932.993C710.8 930.495 711.339 930.777 710.929 927.446C717.474 922.07 725.918 912.377 731.361 905.654C752.253 879.349 771.18 851.532 787.975 822.441C797.95 804.807 810.134 779.96 813.986 759.858C819.668 730.216 811.304 692.859 806.363 663.077C801.538 633.986 794.588 603.617 791.514 574.435C772.11 576.493 763.158 579.725 746.265 588.899C743.828 590.575 741.164 592.327 738.789 594.054C741.244 614.607 741.807 629.866 732.415 649.165C739.548 672.702 755.7 720.707 754.298 742.866C753.496 755.572 749.21 769.098 745.463 781.246C744.097 778.876 746.4 775.435 747.079 771.485C746.369 769.973 745.983 769.796 744.948 768.54C744.054 769.661 742.94 775.27 741.82 777.841L741.079 777.131C744.061 766.501 743.283 763.623 740.485 752.957C738.201 744.226 735.207 735.696 731.527 727.455C726.763 716.886 721.528 707.653 718.454 696.313C715.631 685.879 716.942 678.189 716.691 667.933C715.178 664.112 717.211 665.673 713.954 662.857C735.629 645.185 738.525 614.754 731.857 589.233C727.798 573.698 723.64 563.28 722.587 546.875Z" fill="#133721"/>
<path d="M728.9 655.576C729.947 657.872 733.443 670.725 734.374 674.031C739.235 691.249 744.275 708.816 748.377 726.206C750.551 735.402 751.304 738.55 748.561 747.765C747.936 749.883 748.095 752.473 746.761 754.574L746.105 754.145C744.164 744.758 740.374 733.706 736.431 725.005C730.02 710.873 723.64 701.597 722.274 685.763C721.503 676.78 722.103 671.753 722.942 662.832C724.375 660.866 727.277 657.548 728.9 655.576Z" fill="#DFE2C1"/>
<path d="M515.593 229.452C512.609 227.861 509.481 226.258 506.714 224.317C485.213 209.226 480.249 180.85 489.984 157.452C497.095 140.517 510.563 127.045 527.496 119.928C543.606 113.282 558.479 113.403 574.395 120.102C592.649 129.816 601.667 143.44 601.242 164.264C599.382 163.662 599.088 163.705 597.189 163.549L596.369 164.883C593.92 165.439 591.374 166.091 588.919 166.576C562.272 171.853 542.569 185.944 526.862 208.074C529.16 209.995 529.04 210.815 531.941 210.328C522.619 225.932 519.646 232.886 516.092 250.632C512.84 250.724 512.906 250.802 510.31 253.008C511.362 243.85 512.853 238.284 515.593 229.452Z" fill="#FBEBE2"/>
<path d="M515.593 229.452C512.609 227.861 509.481 226.258 506.714 224.317C485.213 209.226 480.249 180.85 489.984 157.452C497.095 140.517 510.563 127.045 527.496 119.928C543.606 113.282 558.479 113.403 574.395 120.102C571.359 123.055 569.209 121.525 567.345 123.505C551.217 119.043 536.822 120.939 522.112 129.332C507.584 137.71 497.018 151.558 492.774 167.783C486.182 193.073 496.396 211.827 517.861 224.757C520.621 218.721 522.867 213.467 526.862 208.074C529.16 209.995 529.04 210.815 531.941 210.328C522.619 225.932 519.646 232.886 516.092 250.632C512.84 250.724 512.906 250.802 510.31 253.008C511.362 243.85 512.853 238.284 515.593 229.452Z" fill="#11311F"/>
<path d="M574.396 120.103C592.649 129.816 601.668 143.44 601.243 164.264C599.383 163.662 599.089 163.705 597.189 163.549C595.908 160.419 595.458 153.191 592.961 147.49C587.069 134.032 580.251 129.179 567.346 123.505C569.21 121.526 571.36 123.055 574.396 120.103Z" fill="#11311F"/>
<path d="M401.747 1038.44C424.069 1044.49 446.624 1049.65 469.358 1053.91C475.615 1054.93 499.573 1058.35 504.342 1060.22C522.812 1062.22 543.085 1066.36 561.807 1068.91C598.601 1073.91 635.168 1080.41 672.127 1084.56C691.445 1086.55 710.812 1088.1 730.204 1089.21C746.614 1090.25 772.557 1092.43 788.036 1090.15C789.775 1092.44 790.344 1092.71 792.739 1094.43C779.739 1098.14 757.145 1096.52 743.344 1095.74C710.91 1094.19 678.55 1091.29 646.361 1087.03L602.319 1080.71C594.418 1079.55 584.592 1077.71 576.876 1077.45C569.571 1075.64 561.084 1073.71 553.558 1073.62C543.769 1073.49 533.093 1075.84 523.331 1077.08C497.188 1080.39 421.437 1091.68 399.957 1082.83C394.624 1080.63 391.116 1077.68 388.818 1072.37C387.365 1067.36 387.815 1064.57 389.706 1059.91C391.701 1055.29 396.46 1049.25 400.778 1046.9C402.26 1046.1 401.832 1046.55 402.803 1045.28L401.094 1044.38C401.947 1041.45 402.735 1040.77 401.747 1038.44Z" fill="#133721"/>
<path d="M411.464 1046.8C428.685 1051.18 446.025 1055.07 463.464 1058.47C465.519 1057.54 467.988 1055.75 469.358 1053.9C475.615 1054.93 499.573 1058.35 504.342 1060.22C503.149 1063.09 502.703 1062.91 501.378 1065.1C510.957 1067.19 522.522 1068.53 532.496 1070.46C520.215 1071.24 503.721 1073.84 491.204 1075.42C472.621 1077.78 453.949 1079.37 435.236 1080.2C426.822 1080.53 415.217 1081.28 407.227 1079.35C381.428 1073.11 396.457 1054.31 411.464 1046.8Z" fill="#FBEBE2"/>
<path d="M469.358 1053.9C475.615 1054.93 499.573 1058.35 504.343 1060.22C503.149 1063.09 502.703 1062.91 501.378 1065.1C489.553 1063.54 475.362 1060.63 463.464 1058.47C465.519 1057.54 467.988 1055.75 469.358 1053.9Z" fill="#16452C"/>
<path d="M389.706 1059.91C394.977 1064.15 393.687 1068.69 388.818 1072.37C387.365 1067.36 387.815 1064.56 389.706 1059.91Z" fill="#11311F"/>
<path d="M549.171 346.02C554.023 368.073 550.073 404.2 537.694 423.244C515.012 458.135 464.964 452.209 434.124 476.9C404.1 500.94 397.899 538.019 386.437 572.243C410.104 574.066 430.924 584.115 448.662 599.656C449.617 599.643 449.316 599.829 449.714 599.508L450.555 600.833C452.482 601.263 453.07 600.805 454.899 600.043C453.103 615.17 454.298 623.639 458.031 638.003C468.606 630.08 510.846 595.742 515.495 585.95C529.092 557.311 528.566 553.076 553.267 527.927C541.032 522.379 530.003 514.487 520.806 504.695C512.976 496.37 495.303 471.55 495.679 460.428L496.483 460.134C498.659 462.842 503.005 471.62 505.407 475.417C520.919 499.94 531.74 511.035 557.163 523.913C561.921 519.351 572.495 503.268 579.143 510.698C585.334 517.619 578.692 524.914 578.408 531.642L579.248 532.41C576.521 533.154 576.665 532.656 575.077 534.409C575.048 536.151 574.875 536.211 575.764 537.649C579.225 536.832 579.806 534.779 581.73 535.304L581.763 535.985C579.427 537.362 577.991 538.176 575.537 539.3C572.791 536.268 574.118 535.928 570.235 534.377C573.029 528.989 577.963 520.852 576.729 514.94C575.419 513.33 576.225 513.789 574.312 513.382C566.618 518.272 550.197 539.918 542.339 547.022C529.937 558.232 526.606 582.853 515.326 594.563C478.748 632.535 434.578 661.785 394.429 695.603C391.712 697.893 389.053 700.318 386.177 702.381C397.491 683.651 434.78 656.03 453.588 641.83C449.283 628.298 448.532 622.163 448.861 607.821C430.727 589.782 410.942 580.57 385.752 577.559L385.572 578.767C384.112 588.15 381.074 598.005 378.762 607.283C371.197 637.636 362.361 668.912 358.66 699.975C355.788 724.081 355.547 767.175 386.008 773.641C387.99 774.07 392.519 773.788 394.321 772.772C395.304 774.731 396.091 776.421 396.954 778.435C358.874 783.438 350.318 742.909 352.013 713.537C354.47 670.97 368.03 628.96 378.364 587.815C379.982 581.371 380.603 575.387 381.822 568.912C393.761 530.056 402.744 488.111 440.23 465.682C465.352 450.033 502.464 449.949 524.775 430.216C546.96 410.593 545.548 372.382 546.874 345.732L549.171 346.02Z" fill="#133721"/>
<path d="M803.228 1077.03C800.919 1067.03 797.858 1062.58 789.537 1056.53C770.451 1042.66 748.971 1042.11 726.353 1043.59C705.951 1044.93 684.288 1047.6 664.069 1043.77C648.26 1040.4 633.283 1032.13 618.918 1025.08C564.345 998.283 514.901 959.714 460.885 932.522C444.159 923.955 426.673 916.963 408.651 911.642C402.256 909.775 379.956 904.705 375.971 902.635L375.951 902.372C379.946 901.71 395.28 904.062 399.338 904.827C444.528 913.363 482.626 937.273 521.159 961.092C549.844 978.818 579.581 998.265 609.639 1013.67C625.268 1006.85 640.502 999.171 655.283 990.666C710.415 958.771 778.454 908.519 843.854 909.97C814.574 916.706 795.384 921.133 767.714 933.697C714.401 957.92 669.458 993.654 615.912 1017.07C628.317 1023.75 651.505 1036.64 664.792 1038.74C709.919 1045.87 744.869 1025.39 788.337 1049.13C796.021 1047.82 804.165 1045.88 811.831 1044.18C811.965 1046.07 812.021 1045.94 813.166 1047.49C814.745 1047.79 814.745 1047.65 816.325 1047.18L817.984 1048.58C810.478 1050.37 802.615 1052.39 794.986 1053.4C799.781 1057.95 805.487 1063.49 807.055 1070.16C805.751 1072.84 807.098 1074.31 806.608 1078.73C804.924 1078.07 803.779 1075.88 803.565 1074.14L803.228 1077.03Z" fill="#133721"/>
<path d="M396.488 772.557C436.52 760.617 482.362 701.928 507.729 669.69C517.435 657.358 528.006 642.596 539.265 631.733C548.152 623.155 563.301 619.726 574.576 614.564C584.163 610.178 589.449 606.999 598.053 600.774C600.222 601.937 600.645 602.033 601.693 604.503C591.501 611.964 584.18 616.554 572.302 621.434C565.74 624.128 551.97 628.127 546.959 631.966C535.118 641.034 521.46 660.695 512.401 673.088C528.398 675.207 540.313 672.347 555.339 666.635C559.059 665.22 573.071 658.546 575.782 658.699L576.085 659.428C574.403 661.95 570.126 664.724 567.533 666.335C550.304 677.044 528.035 682.487 507.988 678.146C501.473 686.541 494.812 694.813 488.009 702.975C484.772 706.9 478.969 713.035 476.471 717.235C457.471 749.161 444.034 783.542 442.463 820.966C442.158 828.228 444.473 857.845 443.332 860.845C441.806 859.425 440.504 856.443 440.064 854.429C431.017 813.018 443.139 768.498 462.095 732.09C444.288 749.951 427.666 765.608 404.2 776.047C401.88 776.862 399.316 777.841 396.954 778.435C396.091 776.421 395.304 774.731 394.321 772.772L396.488 772.557Z" fill="#133721"/>
<path d="M394.321 772.771L396.488 772.557C398.552 772.912 403.683 773.292 404.868 774.492L404.2 776.047C401.88 776.862 399.316 777.841 396.954 778.435C396.091 776.421 395.304 774.731 394.321 772.771Z" fill="#11311F"/>
<path d="M597.189 163.549C599.089 163.704 599.382 163.661 601.243 164.264L602.174 164.363C607.895 164.915 614.288 163.763 620.369 164.491C656.427 168.805 680.877 184.16 700.881 213.935L701.236 214.976C705.038 225.836 706.697 225.082 707.438 238.072L704.548 238.984C704.469 236.634 702.919 232.877 702.068 230.611C696.643 215.755 687.3 202.645 675.023 192.675C653.286 175.377 625.487 167.58 597.923 171.048C568.487 174.546 549.873 187.673 531.941 210.328C529.04 210.814 529.16 209.995 526.862 208.074C542.569 185.944 562.272 171.853 588.919 166.576C591.374 166.091 593.92 165.438 596.369 164.883L597.189 163.549Z" fill="#133721"/>
<path d="M664.179 439.227L671.177 441.073C696.906 446.965 723.266 448.242 745.628 464.328C773.622 484.472 784.221 518.966 792.493 550.874C791.024 551.154 789.567 551.451 788.109 551.767C787.828 552.492 787.668 552.658 787.613 553.404C783.964 536.519 775.912 513.245 767.671 498.171C742.26 451.673 706.213 456.857 664.338 444.832L661.546 444.2C662.256 442.393 662.758 440.406 664.179 439.227Z" fill="#133721"/>
<path d="M664.179 439.227L671.177 441.073C668.22 442.871 666.732 442.199 664.338 444.832L661.546 444.2C662.256 442.393 662.758 440.406 664.179 439.227Z" fill="#11311F"/>
<path d="M287.85 863.76C333.652 841.196 387.695 846.499 434.661 862.456C436.54 863.098 438.41 863.766 440.271 864.458L441.664 865.903L440.251 870.532C395.181 851.379 336.86 847.944 291.947 868.291C290.967 866.864 289.11 865.088 287.85 863.76Z" fill="#133721"/>
<path d="M450.912 869.319C476.749 878.577 531.633 918.12 546.82 940.047C537.639 934.977 519.162 919.381 510.361 912.487C490.039 896.567 471.271 884.204 447.681 873.501C449.219 872.76 450.23 873.079 451.952 872.736C451.51 871.603 451.117 870.519 450.912 869.319Z" fill="#133721"/>
<path d="M509.97 256.867C511.542 258.178 513.273 259.744 515.024 260.728C515.101 286.865 520.803 308.035 536.548 329.703C540.086 334.572 546.982 340.58 549.171 346.019L546.874 345.732C533.215 342.058 520.413 313.042 515.253 301.244C511.056 288.042 508.301 270.604 509.97 256.867Z" fill="#133721"/>
<path d="M596.543 383.324C613.585 391.67 616.824 398.408 639.032 403.834C638.04 405.298 636.718 406.982 636.203 408.622L634.403 408.554C633.564 411.108 635.187 417.759 636.46 420.274C641.763 430.773 653.623 435.692 664.179 439.227C662.759 440.406 662.257 442.393 661.546 444.2C641.371 436.343 630.405 431.046 628.758 407.02C615.342 400.968 605.137 395.42 596.543 383.324Z" fill="#133721"/>
<path d="M633.674 656.654C645.197 659.966 656.819 666.947 669.145 669.512C686.54 673.137 698.982 672.298 713.953 662.856C717.211 665.673 715.178 664.112 716.69 667.932C706.556 674.215 698.027 677.368 685.854 677.319C667.871 677.246 646.428 669.518 633.674 656.654Z" fill="#133721"/>
<path d="M578.408 531.642C580.535 531.066 587.475 527.224 589.969 526.032C602.373 520.106 625.022 507.601 638.438 511.099C637.097 512.89 636.417 512.972 634.36 513.811L634.14 514.107C612.684 519.163 600.768 527.026 581.763 535.985L581.73 535.304C579.807 534.778 579.225 536.832 575.764 537.649C574.876 536.211 575.049 536.151 575.077 534.409C576.666 532.656 576.522 533.154 579.249 532.41L578.408 531.642Z" fill="#133721"/>
<path d="M287.85 863.76C289.111 865.088 290.968 866.864 291.947 868.291C277.038 875.449 261.65 888.65 256.536 904.931C255.459 902.574 254.463 901.655 252.514 900.088C259.608 882.827 272.02 872.54 287.85 863.76Z" fill="#133721"/>
<path d="M803.227 1077.03L803.564 1074.14C803.778 1075.88 804.923 1078.07 806.607 1078.73C807.097 1074.31 805.75 1072.84 807.054 1070.16C810.667 1081.57 804.042 1091.54 792.739 1094.43C790.345 1092.71 789.775 1092.44 788.036 1090.15C797.411 1087.37 799.707 1086.23 803.227 1077.03Z" fill="#11311F"/>
<path d="M449.715 599.508C451.036 590.445 454.326 576.987 458.074 568.549C458.234 577.737 456.648 590.847 454.899 600.043C453.07 600.804 452.483 601.262 450.556 600.833L449.715 599.508Z" fill="#11311F"/>
<path d="M811.83 1044.18C816.245 1043.1 820.17 1041.93 824.523 1040.6L824.86 1046.72C822.711 1047.3 820.059 1047.93 817.984 1048.58L816.324 1047.18C814.745 1047.65 814.745 1047.79 813.165 1047.49C812.02 1045.95 811.965 1046.07 811.83 1044.18Z" fill="#16452C"/>
<path d="M441.664 865.903C445.097 867.611 447.294 868.211 450.911 869.319C451.116 870.52 451.509 871.603 451.952 872.736C450.23 873.079 449.218 872.761 447.68 873.501C445.539 872.957 442.372 871.456 440.251 870.532L441.664 865.903Z" fill="#16452C"/>
<path d="M605.461 595.292C607.874 595.954 608.607 595.767 609.774 598.349C607.107 600.434 604.464 602.56 601.693 604.503C600.646 602.033 600.222 601.937 598.054 600.774L605.461 595.292Z" fill="#11311F"/>
<path d="M510.311 253.008C512.907 250.803 512.841 250.724 516.093 250.632C515.674 253.991 515.317 257.356 515.025 260.728C513.273 259.744 511.543 258.178 509.971 256.867C510.003 255.771 510.206 254.148 510.311 253.008Z" fill="#16452C"/>
<path d="M689.945 233.47C693.037 233.216 699.497 233.325 701.469 235.943C699.95 236.978 692.768 237.232 690.331 237.928C678.238 241.379 668.704 248.882 658.834 256.419C639.528 271.159 622.8 285.135 598.041 289.011C592.13 289.009 588.821 288.887 582.98 288.183C603.975 284.031 613.181 280.872 631.948 269.386C652.846 256.592 665.545 238.689 689.945 233.47Z" fill="#133721"/>
<path d="M560.223 276.335C568.003 276.438 574.927 280.479 577.819 288.014C578.53 289.864 579.193 292.909 578.269 294.692C572.055 293.169 575.718 285.851 561.809 281.281C544.979 287.912 546.068 305.739 553.658 319.183C557.411 325.444 564.178 329.087 565.876 332.549L564.546 333.26C543.887 333.199 531.362 282.317 560.223 276.335Z" fill="#133721"/>
</svg>
