<svg width="1254" height="1254" viewBox="0 0 1254 1254" fill="none" xmlns="http://www.w3.org/2000/svg">
<path d="M554.833 302.846C577.334 287.862 597.281 274.347 621.121 260.909C712.575 209.348 827.572 164.308 934.175 185.493C993.323 197.247 1045.59 230.499 1078.85 280.892C1129.95 358.316 1129.38 469.72 1111.63 557.183C1097.51 625.506 1071.85 690.925 1035.75 750.618C1028.43 762.479 1020.79 774.143 1012.84 785.599C1008.59 791.698 1002.92 799.021 999.116 805.089C1036.8 804.691 1073.67 816.472 1074.75 860.643C1075.3 883.103 1062.47 901.453 1047.27 916.798C995.925 967.362 922.988 976.479 854.752 984.078C850.766 984.525 846.75 985.033 842.751 985.327C851.391 990.219 862.1 998.449 855.683 1009.59C850.619 1018.37 827.952 1011.53 818.78 1011.03C791.599 1009.54 764.315 1008.08 737.484 1003.19C735.91 1002.9 729.91 1001.9 728.648 1002.04C724.129 1005.06 714.731 1008.55 709.403 1010.8C694.616 1017.02 679.75 1023.03 664.797 1028.83C563.766 1068.16 450.744 1101.13 341.657 1079.47C272.892 1066.06 209.571 1028.41 171.082 969.064C86.5121 838.649 160.39 670.345 249.628 563.569C255.698 556.306 273.929 534.666 281.027 530.057C280.987 526.115 281.052 522.172 281.221 518.234C283.896 466.596 312.329 438.435 359.912 423.597C370.157 420.403 384.46 417.984 391.996 410.594C400.667 402.09 403.93 390.752 404.298 378.994C391.2 364.865 383.186 351.606 379.163 332.502C368.976 284.141 396.983 238.306 446.141 229.028C471.518 224.495 497.659 230.149 518.893 244.765C540.901 259.798 550.125 277.539 554.833 302.846Z" fill="#0D3724"/>
<path d="M554.834 302.846C577.334 287.862 597.281 274.347 621.122 260.909C712.575 209.348 827.572 164.308 934.175 185.493C993.323 197.247 1045.59 230.499 1078.85 280.892C1129.95 358.316 1129.38 469.72 1111.63 557.183C1097.51 625.506 1071.85 690.925 1035.75 750.618C1028.43 762.479 1020.79 774.143 1012.84 785.599C1008.59 791.698 1002.92 799.021 999.116 805.089C995.895 805.579 991.768 805.671 988.419 805.946C948.509 809.179 909.033 821.082 871.169 833.628C892.838 808.53 927.427 763.403 923.784 729.506C920.3 697.14 899.408 650.598 887.358 619.45C880.108 600.712 867.409 567.54 856.761 551.336C850.773 542.375 842.715 534.99 833.267 529.808C803.46 513.65 772.416 523.841 746.779 500.907C759.619 504.321 767.946 503.299 777.97 493.845C790.779 481.767 799.119 466.687 805.891 450.61C821.168 414.339 826.329 368.649 796.963 337.835C780.413 320.445 761.052 312.834 737.257 312.244C735.035 306.315 731.428 301.002 726.738 296.746C718.227 289.035 707.432 286.142 696.141 286.786C657.78 288.977 634.776 335.826 665.942 363.57C653.696 393.381 658.27 431.984 686.332 451.236C686.577 463.396 684.507 478.484 679.217 489.536C669.445 509.946 648.62 510.715 629.645 514.57C621.146 516.257 612.794 518.607 604.662 521.6C564.727 489.513 568.808 451.482 513.153 429.88C544.402 404.524 559.021 341.507 554.834 302.846Z" fill="#E4E6C3"/>
<path d="M281.027 530.057C281.864 540.426 283.194 555.566 286.061 565.455C299.012 610.123 297.087 659.274 278.899 702.258C272.176 718.147 264.437 734.037 257.559 749.889C244.485 782.311 245.152 816.539 260.921 847.901C237.055 849.358 236.683 866.215 222.918 880.555C215.525 888.258 203.081 891.773 195.277 899.286C189.666 904.294 176.902 918.175 186.353 924.978C197.183 932.779 217.935 931.37 230.738 929.931C248.104 927.984 254.059 928.523 270.544 933.275C271.917 935.577 273.013 937.573 275.39 938.908C284.806 944.149 295.509 948.423 305.612 952.317C337.007 964.404 368.611 978.438 401.09 987.225C434.579 996.287 485.263 995.117 505.274 961.514C557.149 985.112 608.563 990.366 664.577 995.515C668.459 995.877 672.041 996.74 675.543 995.283C687.71 993.825 717.908 997.824 728.648 1002.04C724.129 1005.06 714.731 1008.55 709.403 1010.8C694.616 1017.02 679.75 1023.03 664.797 1028.83C563.766 1068.16 450.744 1101.13 341.657 1079.47C272.892 1066.06 209.571 1028.41 171.082 969.064C86.5121 838.649 160.39 670.345 249.628 563.569C255.698 556.306 273.929 534.665 281.027 530.057Z" fill="#E4E6C3"/>
<path d="M998.509 810.355C1016.09 809.283 1038.13 812.265 1052.31 823.489C1062.02 831.038 1068.22 842.225 1069.49 854.459C1071.39 872.497 1064.54 888.809 1053.3 902.611C1003.08 964.239 912.358 973.234 838.863 981.01C836.114 961.422 831.693 950.052 821.957 932.932C839.506 924.464 855.769 915.536 871.413 904.313C900.651 883.347 928.009 860.459 963.718 851.703C966.174 851.103 976.485 848.25 977.618 846.719L976.901 845.991C963.381 843.713 929.999 858.176 918.597 865.199C887.309 884.474 859.982 909.542 826.421 925.431C816.851 929.962 809.424 936.079 797.955 936.814C791.734 937.212 787.423 937.965 782.249 933.673C778.306 934.567 771.442 938.932 767.811 941.149C763.972 937.885 760.072 934.683 755.149 933.22C740.876 928.958 733.994 937.053 723.585 942.263L722.966 942.57C714.676 941.951 707.481 939.11 700.035 935.577C696.864 934.481 695.112 930.966 692.332 929.54C647.089 906.352 611.549 865.952 560.381 854.698C556.3 853.804 544.193 851.103 540.491 852.604L540.267 853.467L541.406 854.63C559.551 858.953 575.548 863.49 592.382 871.818C613.155 882.098 631.702 896.255 650.641 909.554C664.785 919.486 676.994 926.797 691.898 935.289C691.481 955.128 685.371 974.428 674.3 990.899C659.182 990.531 637.219 987.721 621.685 985.89C567.591 979.504 508.097 966.798 465.79 930.14C451.694 917.924 439.887 900.131 439.051 881.1C438.41 866.466 443.357 851.281 453.414 840.529C489.94 801.464 582.053 824.015 623.877 845.801C647.824 858.273 661.258 875.026 691.573 887.823C713.298 896.751 736.7 900.872 760.176 899.898C798.5 898.141 828.35 883.954 849.817 854.177C851.679 851.593 863.888 841.074 866.711 840.168C909.303 826.562 953.493 812.387 998.509 810.355Z" fill="#FEEEE4"/>
<path d="M793.81 523.292C837.927 531.824 848.856 540.772 866.815 582.241C870.899 591.655 874.898 601.109 878.798 610.599C869.277 620.014 857.815 625.806 845.079 629.523C843.811 620.35 838.398 595.987 831.694 590.085L830.965 590.605C830.72 598.962 837.682 612.464 839.158 622.83C842.593 646.943 836.886 659.709 823.734 678.483C826.318 683.626 825.313 689.522 826.654 691.2C843.664 712.429 858.01 738.084 857.692 766.146C857.563 777.584 848.097 798.133 839.66 806.387C835.147 810.808 818.033 804.587 811.794 804.789C799.762 804.893 770.212 806.093 759.674 812.877C758.774 813.722 757.954 816.772 758.15 817.825C760.109 828.448 783.426 826.385 790.485 825.999C774.51 833.818 758.058 836.316 740.883 839.433C737.031 840.511 729.414 841.429 727.314 845.195C726.108 847.35 728.33 849.358 727.534 851.759C717.144 858.959 724.957 861.941 731.955 865.033C732.182 866.16 732.445 867.274 732.745 868.383C734.631 875.106 742.573 873.453 747.336 875.43C747.508 875.498 750.226 880.537 752.167 881.113C769.734 886.317 793.933 880.935 809.651 875.614C818.725 872.804 828.712 867.17 836.966 862.407C813.465 886.054 785.587 895.128 752.431 894.883C720.915 894.859 690.153 885.178 664.308 867.134C647.874 855.812 632.033 842.311 613.156 834.957C605.314 831.908 597.24 829.128 589.275 826.397C591.426 816.325 594.184 806.393 597.534 796.657C603.877 778.313 611.917 759.937 614.368 740.57C634.709 725.752 653.048 709.288 671.325 692.97C692.939 673.676 699.546 661.62 728.465 655.325C745.732 651.566 779.562 628.653 791.116 614.815C792.377 613.303 791.037 609.811 790.418 608.18L790.118 607.417C792.267 602.96 799.78 601.374 798.788 594.364C792.286 584.941 804.397 586.464 796.462 578.725C793.247 577.244 792.23 578.697 788.918 578.087C787.54 575.059 787.344 574.451 784.962 572.185C785.416 571.529 785.85 570.863 786.273 570.185C795.335 555.771 797.631 539.854 793.81 523.292Z" fill="#FEEEE4"/>
<path d="M755.382 677.478C771.327 676.658 790.81 679.56 805.401 686.314C807.318 687.202 809.143 687.979 809.896 689.994L809.228 691.047C806.393 690.753 798.238 687.594 794.392 686.657C781.552 683.522 770.58 682.432 757.458 682.383C740.871 682.824 727.008 685.193 711.272 690.122C708.737 690.912 704.837 691.941 702.283 691.451L702.687 690.588C717.254 681.281 738.403 678.495 755.382 677.478Z" fill="#0D3724"/>
<path d="M268.54 737.637C290.214 754.445 328.391 762.754 355.206 768.393C397.15 777.211 452.753 779.574 489.661 754.763C529.909 770.8 553.858 784.613 587.747 811.414C586.639 815.767 585.673 820.807 584.713 825.246C573.68 821.352 553.972 817.231 542.297 815.804C511.637 812.057 479.975 812.694 454.601 832.263C448.855 825.999 441.653 820.096 435.132 814.61C438.506 810.648 452.574 797.686 452.922 794.722L452.03 793.767C446.741 794.924 434.91 807.728 431.387 812.118C426.028 808.218 420.463 804.599 414.718 801.292C407.836 797.386 384.801 785.868 376.89 788.079C377.685 789.346 378.835 790.044 380.262 790.596C405.27 800.221 432.01 815.112 450.427 835.061L450.978 835.667C445.568 841.258 441.306 847.858 438.435 855.09C431.878 871.407 432.871 888.062 439.624 904.074C449.861 929.074 477.755 947.174 500.623 959.439L500.201 960.112C483.524 986.674 442.667 990.274 414.756 984.923C383.047 978.836 351.515 964.643 321.378 953.101C308.695 948.246 287.244 940.531 276.078 933.495C268.728 915.365 273.502 892.232 287.942 878.853C308.461 896.23 344.848 908.752 368.665 921.206C374.297 924.145 391.293 935.038 394.327 935.742L394.77 934.959C386.738 920.655 343.091 903.97 328.204 896.867C297.931 882.423 270.383 864.672 259.103 831.081C248.013 798.066 253.755 768.05 268.54 737.637Z" fill="#FEEEE4"/>
<path d="M372.01 424.957C374.091 425.215 375.221 431.003 376.353 433.881C383.536 451.519 393.795 469.571 408.635 481.975C453.341 519.344 489.838 483.644 483.835 433.272C493.342 435.032 497.634 435.476 506.994 433.283C555.487 448.383 558.994 480.567 590.533 514.769C586.688 519.507 583.677 522.606 580.573 527.905C555.722 537.005 549.21 543.534 533.992 563.492C533.815 553.187 534.39 542.865 534.654 532.597C534.818 526.249 537.12 515.131 535.832 509.803L535.051 509.691C529.202 518.374 528.918 545.11 529.462 555.68C530.501 575.811 518.527 589.208 501.221 598.627C481.887 608.901 461.682 617.442 440.84 624.147C428.354 628.255 415.628 631.751 403.21 636.044C398.096 613.205 392.772 591.228 389.139 568.136C387.629 558.534 380.249 530.211 374.967 523.676L374.268 523.754C373.069 528.419 377.567 541.186 378.981 546.601C381.726 557.161 384.131 567.807 386.195 578.521C358.345 573.928 322.88 581.747 301.824 601.232C300.549 597.984 299.363 594.703 298.265 591.391C282.961 545.104 275.323 484.37 318.296 450.054C334.733 436.929 352.427 431.277 372.01 424.957Z" fill="#FEEEE4"/>
<path d="M456.031 232.92C487.687 229.91 522.069 245.667 539.033 272.842C543.517 280.025 545.668 285.848 548.156 293.89L547.064 293.609C527.157 288.361 511.685 307.58 497.665 318.837C482.926 330.672 467.17 339.161 447.924 340.423C443.529 340.711 439.128 340.364 434.909 341.425C427.254 331.8 418.218 328.461 409.248 339.626C399.345 351.952 411.343 382.009 426.944 378.293L427.302 377.528C424.85 374.22 418.529 373.903 414.326 365.581C411.387 360.648 409.073 350.87 411.479 345.38C417.405 331.856 425.504 339.154 433.462 344.014C434.839 344.854 447.938 344.863 450.023 344.797C472.964 344.067 492.523 331.312 508.801 316.101C515.293 310.429 521.746 304.273 529.521 300.362C533.883 297.975 547.432 292.819 549.037 300.652C554.291 326.283 548.19 353.706 539.664 378.023C536.718 386.427 533.239 393.65 529.388 401.272C528.209 403.29 527.008 405.294 525.784 407.284C520.474 415.868 512.039 427.55 501.823 429.334C485.977 432.102 469.659 422.832 457.085 414.246C455.623 413.248 454.642 412.789 453.17 413.155L452.901 414.274C454.649 417.867 460.024 421.424 463.289 423.86C458.567 431.024 454.107 438.608 452.969 447.373C452.665 449.717 452.401 455.623 453.822 457.354C456.743 455.247 458.19 442.782 460.761 437.821C463.547 432.445 463.504 431.854 467.493 426.641C471.7 428.836 474.348 429.921 478.807 431.625C483.47 464.654 466.966 506.878 425.796 487.406C401.98 476.142 386.159 447.83 377.856 423.696C400.349 415.501 408.949 401.011 408.827 377.459C405.868 373.537 402.262 369.824 399.176 365.651C390.117 353.324 384.471 338.824 382.808 323.616C377.295 275.612 408.181 237.931 456.031 232.92Z" fill="#FEEEE4"/>
<path d="M700.422 411.706C745.206 415.758 753.827 375.296 794.19 374.96C811.102 374.819 815.805 393.575 812.774 406.732C810.453 422.963 806.449 437.992 799.474 452.935C793.039 466.905 784.271 482.051 772.515 492.143C756.491 505.9 737.166 491.571 723.738 481.618C722.716 480.858 721.993 481.123 720.959 481.337L720.61 482.441C724.939 489.54 734.809 495.622 742.157 499.057C738.238 509.97 735.213 523.263 739.401 535.275C739.854 536.577 740.307 536.673 741.195 537.047C743.547 534.704 741.434 528.633 741.477 525.257C741.557 518.643 743.118 512.24 744.979 505.938C757.55 516.141 772.998 520.934 788.9 523.221C792.862 540.567 790.4 557.82 779.195 572.034C764.402 575.925 751.041 582.736 736.854 588.3C739.64 584.2 745.677 575.565 739.603 571.977C733.462 568.35 716.391 582.127 711.401 585.904C674.46 576.372 656.581 552.564 646.447 516.69C660.99 512.986 673.585 508.7 681.783 495.064C687.594 485.392 694.183 457.703 689.762 447.584L690.172 446.629C692.842 447.349 693.166 447.574 695.805 447.16L696.301 446.199C694.085 442.883 690.221 440.918 687.41 438.434C681.869 433.528 679.787 422.981 681.691 415.969C684.973 403.901 692.793 404.947 700.422 411.706Z" fill="#FEEEE4"/>
<path d="M594.824 529.83C597.27 529.502 600.181 528.838 602.085 530.655C600.156 533.513 569.183 541.38 561.933 549.089C560.988 550.094 561.057 550.378 561.089 551.677C562.237 552.448 562.802 552.74 564.274 551.965C572.343 547.71 604.386 531.657 611.709 537.522C611.96 542.941 562.797 554.874 566.427 562.718C569.917 563.898 604.287 543.64 611.826 546.821L611.953 548.122C605.304 557.84 571.321 566.517 569.613 574.653L570.445 575.285C577.561 575.156 596.486 559.901 602.923 563.837L602.703 565.193C597.523 572.095 584.833 576.341 577.153 583.629C565.897 594.31 561.263 605.664 549.871 616.205C543.517 622.996 532.279 623.675 525.664 629.474C485.614 664.583 447.068 700.017 396.307 719.017C387.759 721.877 378.379 724.595 369.745 720.499C346.104 709.275 313.091 630.429 304.221 605.861C321.456 587.352 362.399 578.495 386.559 583.823C390.132 601.06 394.304 620.81 398.66 637.789C393.523 640.128 379.939 647.427 379.652 653.366L380.296 653.917C383.337 653.121 389.103 648.1 392.987 646.086C399.484 642.718 403.944 641.114 410.863 638.726C423.879 634.244 438.688 630.876 451.49 625.99C470.865 618.599 502.677 606.553 518.075 592.862C523.424 588.107 538.209 566.217 542.811 559.673C554.967 542.392 574.155 533.028 594.824 529.83Z" fill="#FEEEE4"/>
<path d="M736.468 574.807L737.392 575.822C739.217 584.089 721.332 593.533 718.699 599.368C724.742 601.381 774.982 573.115 783.609 577.498C783.854 582.994 750.171 594.555 746.375 600.401L746.791 601.348C753.018 603.88 783.168 582.312 792.175 582.314C793.455 582.315 793.063 582.374 794.184 583.481C793.106 591.63 755.602 606.307 752.847 612.226L753.527 613.266C759.374 614.234 789.377 593.489 793.4 593.677L794.227 594.847C794.043 603.428 758.511 619.64 756.558 623.939L757.237 625.267C763.023 626.755 781.117 611.435 786.873 611.22L787.295 612.248C783.817 621.845 742.009 645.694 731.08 649.257C722.599 652.019 708.786 654.842 702.013 659.538C695.131 664.302 686.216 672.733 679.866 678.44L644.322 710.249C634.458 719.023 624.153 727.296 613.456 735.035C600.166 744.495 574.723 760.783 557.858 758.174C540.364 755.474 538.372 722.52 538.662 708.853C539.234 681.814 544.461 653.997 550.649 627.619C570.568 627.27 591.769 632.756 607.646 645.094C605.515 653.899 603.532 662.734 601.697 671.6C593.201 675.244 566.395 688.659 566.44 698.872L566.806 698.793L565.896 698.481L565.975 698.793C569.042 699.123 582.219 686.761 588.627 683.516C620.779 667.259 654.425 653.58 682.812 630.809C688.69 626.1 693.766 615.856 697.237 608.881C703.893 595.529 723.144 581.648 736.468 574.807Z" fill="#FEEEE4"/>
<path d="M880.304 615.923C882.16 618.422 887.04 631.733 888.442 635.278C895.483 652.717 902.066 670.339 908.183 688.126C914.802 707.242 922.866 729.151 916.951 749.406C907.356 782.28 880.917 817.494 856.804 841.313C831.553 866.252 785.434 885.092 750.092 876.171C760.85 874.304 781.46 877.169 791.018 870.263L790.939 869.485C785.636 868.003 774.976 870.869 768.939 871.034C762.669 871.212 741.691 871.971 737.062 867.838L737.068 866.858C739.909 865.836 746.246 866.301 749.516 866.325C758.603 866.38 778.019 865.689 785.948 861.372L786.205 860.257C782.954 858.182 739.456 865.94 727.008 858.378C727.687 857.214 728.251 856.173 729.739 855.818C736.909 854.116 781.754 855.635 782.428 848.434C778.723 845.17 737.135 855.616 731.643 847.926C732.292 845.225 738.195 844.099 740.889 843.799C750.986 842.666 795.598 834.449 797.631 824.799C793.394 818.608 768.381 824.548 763.042 818.204C762.834 817.261 762.448 816.845 763.085 816.006C766.71 811.218 805.524 809.13 812.804 809.62C820.501 810.14 830.732 814.169 838.178 812.583C841.668 811.842 844.185 808.812 846.364 806.179C857.643 792.561 861.543 774.627 865.107 757.8C866.717 750.183 868.322 742.211 871.726 735.157C877.212 723.799 884.48 724.92 888.815 718.282L888.246 717.676C881.064 717.952 876.245 721.264 871.726 726.573L871.157 727.259C860.405 706.936 849.297 683.216 839.347 662.416C843.493 652.662 844.876 644.757 845.103 634.274C858.629 631.525 869.901 624.673 880.304 615.923Z" fill="#FEEEE4"/>
<path d="M298.524 607.071C301.611 610.489 309.567 633.552 312.229 639.589C323.279 664.632 335.948 691.953 353.564 713.17C359.75 720.615 366.996 726.738 377.089 727.455C412.788 729.99 477.588 677.729 503.944 655.166C496.052 673.266 490.269 692.217 486.709 711.639C484.595 724.699 485.624 737.294 487.172 750.263C469.212 763.654 443.986 767.23 422.34 769.165C386.29 772.38 296.504 755.308 270.648 732.574C291.627 688.806 302.215 656.727 298.524 607.071Z" fill="#FEEEE4"/>
<path d="M639.853 517.564C641.377 517.331 641.696 517.207 641.879 517.826C642.718 520.663 643.771 523.593 644.629 526.412C652.386 551.962 668.753 574.646 693.809 585.398C698.07 587.227 702.185 588.581 706.661 589.975C691.947 602.569 690.974 613.462 684.116 622.432C673.542 636.276 626.431 660.426 610.878 666.916C610.031 663.463 609.201 660.867 609.829 657.303C611.609 647.212 614.968 637.783 616.952 627.643C617.693 623.62 619.934 613.119 618.128 609.935L617.142 610.146C614.344 614.497 610.648 634.146 609.294 640.367C597.741 631.672 581.496 625.341 567.031 623.779C564.165 623.473 553.228 623.332 551.763 622.169C554.042 617.852 560.274 612.629 563.415 608.527C571.315 598.212 573.67 591.455 584.585 583.697C591.331 578.902 605.763 572.515 608.308 564.918C609.116 562.507 607.694 561.15 606.467 559.092C608.835 555.692 615.52 554.602 616.671 549.294C617.595 545.035 615.697 545.767 614.834 542.226C620.951 531.485 610.72 534.271 605.697 529.505C605.334 526.291 607.999 525.424 610.772 524.566C620.191 521.651 630.245 519.59 639.853 517.564Z" fill="#FEEEE4"/>
<path d="M683.093 442.886C658.197 417.905 660.37 378.352 678.311 350.059C688.31 334.306 704.156 323.172 722.366 319.11C742.015 314.931 762.521 318.761 779.341 329.75C798.267 341.912 807.623 358.543 812.326 380.029C811.83 379.523 811.322 379.03 810.801 378.549C783.768 353.54 752.938 389.118 730.375 401.176C720.848 406.265 713.965 407.765 703.36 408.261C683.001 387.231 665.746 420.618 684.244 442.188L683.093 442.886Z" fill="#FEEEE4"/>
<path d="M745.071 936.936C764.31 935.944 768.32 954.509 784.546 962.359C797.092 968.427 809.008 966.921 819.986 973.442C825.699 977.03 829.557 981.536 835.006 985.639C841.172 990.286 851.214 994.56 853.069 1003.03C853.614 1005.53 849.873 1009.71 847.063 1009.62C838.705 1009.32 830.249 1007.04 821.891 1006.29C810.177 1005.21 798.409 1004.71 786.659 1004.11C771.529 1002.93 756.441 1001.17 741.446 998.822C718.24 995.044 705.326 991.731 681.263 989.343C690.227 974.115 695.499 956.995 696.65 939.361C702.142 941.871 719.158 949.25 724.357 947.002C730.706 944.253 736.058 939.281 744.257 937.138L745.071 936.936Z" fill="#FEEEE4"/>
<path d="M544.791 625.788C546.092 626.847 545.439 628.12 545.119 629.761C538.149 665.563 525.236 716.605 541.283 750.912C553.896 777.872 591.583 754.745 608.926 744.232C607.843 750.024 606.435 755.749 604.708 761.382C601.198 773.212 593.368 792.518 589.747 804.985C589.432 805.217 589.116 805.456 588.8 805.689L587.256 804.697C556.808 780.192 528.885 764.456 492.356 750.673C486.088 712.716 496.943 686.687 510.29 652.135C512.703 645.883 526.527 634.121 532.628 630.827C534.891 629.602 541.929 626.982 544.791 625.788Z" fill="#E4E6C3"/>
<path d="M256.469 852.989C259.641 852.806 261.344 853.173 264.453 853.632C270.302 862.425 276.111 868.86 284.122 875.81C269.493 889.274 266.083 908.538 268.876 927.556C251.011 922.045 238.613 923.857 220.241 925.707C212.974 925.915 190.834 926.65 187.332 918.947C186.983 912.058 200.348 901.282 205.899 897.663C212.163 893.585 220.211 890.009 225.679 884.921C237.412 874.004 238.933 857.557 256.469 852.989Z" fill="#FEEEE4"/>
<path d="M692.657 292.19C710.592 290.139 723.474 296.367 731.943 312.414C709.471 314.795 693.821 323.182 679.156 340.196C674.153 346.532 671.435 351.418 667.7 358.59C643.428 333.55 660.572 298.883 692.657 292.19Z" fill="#FEEEE4"/>
<path d="M817.182 936.202L818.052 936.269C824.818 942.998 831.81 968.482 834.033 978.377C822.534 967.172 816.411 965.482 801.03 962.5C786.175 959.414 781.338 955.575 771.131 944.511C775.056 942.104 776.531 941.29 780.781 939.569C796.854 943.231 801.789 942.031 817.182 936.202Z" fill="#FEEEE4"/>
<path d="M836.176 668.667C839.947 672.684 864.054 724.436 867.746 731.992C864.948 738.776 863.76 744.22 861.317 750.637C856.039 724.234 847.16 709.08 830.475 688.433C830.885 684.269 830.677 682.695 829.263 678.777C831.743 675.605 833.965 672.041 836.176 668.667Z" fill="#E4E6C3"/>
<path d="M593.339 518.53L599.387 523.706C597.764 524.235 595.519 524.737 593.814 525.168L586.477 526.407L593.339 518.53Z" fill="#FEEEE4"/>
<path d="M684.244 442.188C686.289 443.827 687.955 445.177 690.171 446.629L689.761 447.584C686.528 445.869 685.867 445.311 683.093 442.886L684.244 442.188Z" fill="#AEC2B6"/>
</svg>
