<svg width="256" height="256" viewBox="0 0 256 256" fill="none" xmlns="http://www.w3.org/2000/svg">
<rect width="256" height="256" fill="#FCFAF6"/>
<path d="M211.651 208.907C203.31 217.575 190.745 219.123 183.585 212.363C176.425 205.604 177.382 193.098 185.722 184.43C194.063 175.762 206.628 174.215 213.788 180.974C220.948 187.733 219.991 200.239 211.651 208.907Z" fill="#FFE1CE"/>
<path d="M196.556 193.57C185.435 205.127 168.681 207.191 159.135 198.179C149.588 189.166 150.864 172.492 161.984 160.935C173.105 149.377 189.859 147.314 199.405 156.326C208.952 165.338 207.676 182.013 196.556 193.57Z" fill="#FFCFB0"/>
<path d="M181.3 177.992C166.473 193.402 144.134 196.153 131.406 184.136C118.677 172.12 120.378 149.887 135.205 134.478C150.032 119.068 172.371 116.317 185.1 128.333C197.828 140.349 196.127 162.582 181.3 177.992Z" fill="#FFBB90"/>
<path d="M163.923 160.824C144.154 181.37 114.369 185.038 97.3976 169.017C80.4259 152.995 82.6941 123.351 102.464 102.805C122.233 82.2588 152.018 78.591 168.99 94.6125C185.961 110.634 183.693 140.278 163.923 160.824Z" fill="#FF9B5D"/>
<path d="M141.604 141.107C115.244 168.501 75.5313 173.392 52.9025 152.03C30.2736 130.668 33.2979 91.1427 59.6574 63.7478C86.0168 36.3529 125.73 31.4625 148.359 52.8244C170.987 74.1864 167.963 113.712 141.604 141.107Z" fill="#F87626"/>
</svg>
