<svg width="16" height="16" viewBox="0 0 16 16" fill="none" xmlns="http://www.w3.org/2000/svg">
<rect width="16" height="16" fill="#003320"/>
<path d="M12.3027 12.2298C11.4646 13.1008 10.202 13.2563 9.48251 12.5771C8.76304 11.8979 8.85919 10.6412 9.69728 9.77021C10.5354 8.8992 11.798 8.7437 12.5175 9.4229C13.237 10.1021 13.1408 11.3588 12.3027 12.2298Z" fill="#4A4722"/>
<path d="M10.9541 10.8447C9.69695 12.1512 7.80298 12.3844 6.72377 11.3657C5.64456 10.3469 5.78879 8.46182 7.04592 7.15531C8.30305 5.8488 10.197 5.61555 11.2762 6.63435C12.3554 7.65315 12.2112 9.53818 10.9541 10.8447Z" fill="#7C5523"/>
<path d="M9.60544 9.45959C7.92927 11.2016 5.40397 11.5126 3.96502 10.1542C2.52607 8.79581 2.71838 6.28243 4.39456 4.54041C6.07073 2.79839 8.59603 2.48741 10.035 3.8458C11.4739 5.20419 11.2816 7.71757 9.60544 9.45959Z" fill="#F87626"/>
</svg>
