<svg preserveAspectRatio="none" width="100%" height="100%" overflow="visible" style="display: block;" viewBox="0 0 384 315" fill="none" xmlns="http://www.w3.org/2000/svg">
<g id="undraw_messaging-fun_ouh4 1" clip-path="url(#clip0_74_831)">
<g id="Background-plants">
<path d="M281.066 259.324C284.115 260.395 287.388 260.664 290.571 260.103C293.754 259.543 296.738 258.173 299.237 256.126C305.602 250.788 307.597 241.994 309.221 233.852L314.023 209.767L303.969 216.685C296.738 221.66 289.345 226.794 284.339 233.999C279.333 241.205 277.147 251.042 281.17 258.838" fill="#E6E6E6"/>
<path d="M281.926 288.484C280.908 281.077 279.862 273.575 280.576 266.089C281.209 259.441 283.239 252.947 287.372 247.623C289.566 244.802 292.235 242.385 295.26 240.481C296.048 239.983 296.774 241.232 295.989 241.728C290.755 245.033 286.707 249.913 284.428 255.666C281.911 262.062 281.507 269.036 281.941 275.831C282.203 279.94 282.759 284.023 283.319 288.1C283.363 288.284 283.336 288.478 283.242 288.643C283.149 288.808 282.996 288.931 282.815 288.988C282.63 289.038 282.433 289.013 282.267 288.918C282.1 288.824 281.978 288.668 281.926 288.484Z" fill="var(--fill-0, #F2F2F2)"/>
</g>
<g id="Background-plants_2">
<path d="M291.727 275.377C293.035 277.363 294.832 278.979 296.946 280.069C299.06 281.159 301.419 281.687 303.797 281.602C309.906 281.312 315 277.051 319.585 273.006L333.147 261.041L324.171 260.612C317.716 260.303 311.095 260.015 304.947 262.004C298.799 263.993 293.129 268.78 292.005 275.139" fill="#E6E6E6"/>
<path d="M279.05 292.741C283.948 284.081 289.629 274.457 299.78 271.381C302.603 270.528 305.563 270.223 308.5 270.481C309.426 270.561 309.195 271.987 308.271 271.907C303.347 271.499 298.433 272.798 294.355 275.586C290.432 278.254 287.377 281.964 284.791 285.899C283.208 288.309 281.789 290.821 280.37 293.33C279.917 294.131 278.591 293.553 279.05 292.741Z" fill="var(--fill-0, #F2F2F2)"/>
</g>
<g id="Background-plants_3">
<path d="M158.33 231.903C152.322 234.014 145.87 234.542 139.598 233.438C133.325 232.334 127.443 229.635 122.518 225.6C109.975 215.08 106.042 197.748 102.842 181.7C99.687 165.878 96.5321 150.055 93.3771 134.233L113.193 147.867C127.443 157.671 142.014 167.79 151.881 181.991C161.747 196.193 166.054 215.579 158.127 230.945" fill="#E6E6E6"/>
<path d="M156.636 289.372C158.642 274.774 160.704 259.989 159.297 245.235C158.048 232.132 154.047 219.334 145.903 208.841C141.579 203.281 136.319 198.518 130.357 194.765C128.803 193.784 127.372 196.246 128.92 197.222C139.235 203.736 147.213 213.355 151.704 224.692C156.665 237.299 157.461 251.042 156.607 264.435C156.09 272.534 154.994 280.58 153.89 288.615C153.803 288.979 153.857 289.362 154.042 289.687C154.227 290.012 154.528 290.254 154.885 290.366C155.249 290.464 155.637 290.415 155.965 290.229C156.293 290.042 156.534 289.735 156.636 289.372Z" fill="var(--fill-0, #F2F2F2)"/>
</g>
<g id="Background-plants_4">
<path d="M137.319 263.541C134.742 267.455 131.2 270.639 127.034 272.788C122.867 274.937 118.218 275.977 113.532 275.809C101.491 275.238 91.4522 266.84 82.4155 258.867L55.6869 235.286L73.3768 234.44C86.0984 233.832 99.1481 233.265 111.265 237.185C123.382 241.105 134.557 250.539 136.772 263.071" fill="#E6E6E6"/>
<path d="M162.304 297.763C152.651 280.696 141.454 261.727 121.447 255.664C115.884 253.984 110.051 253.383 104.262 253.891C102.438 254.049 102.893 256.859 104.715 256.702C114.418 255.897 124.103 258.457 132.139 263.952C139.872 269.212 145.893 276.523 150.989 284.277C154.11 289.027 156.906 293.978 159.703 298.923C160.596 300.503 163.209 299.362 162.304 297.763Z" fill="var(--fill-0, #F2F2F2)"/>
</g>
<g id="Paper-plane">
<path d="M87.7983 66.6951L3.60385 49.0697C3.05378 48.9537 2.48211 48.9952 1.9546 49.1895C1.42709 49.3837 0.965157 49.7228 0.621918 50.1676C0.278679 50.6125 0.068082 51.1452 0.0143356 51.7044C-0.0394107 52.2635 0.0658849 52.8265 0.318108 53.3286L33.6731 120.011C33.889 120.439 34.2047 120.809 34.5936 121.09C34.9826 121.371 35.4334 121.555 35.9082 121.626C36.3845 121.697 36.8709 121.651 37.3255 121.492C37.7801 121.333 38.1892 121.066 38.5174 120.714L61.2656 96.4598C61.4274 96.2829 61.6241 96.1414 61.8433 96.0442C62.0625 95.947 62.2994 95.8962 62.5392 95.895C62.8651 95.8885 63.1867 95.9706 63.4695 96.1327C63.7523 96.2947 63.9856 96.5306 64.1446 96.815L68.885 105.453C69.1877 106.029 69.6746 106.488 70.2682 106.755C70.8617 107.023 71.5278 107.084 72.1604 106.93L72.1837 106.924C72.824 106.785 73.3988 106.434 73.8156 105.929C74.2325 105.424 74.4672 104.793 74.4819 104.138L75.3023 84.1281C75.3121 83.8785 75.373 83.6335 75.4814 83.4083C75.5978 83.1854 75.7565 82.9873 75.9486 82.8248L89.0905 71.914C89.5225 71.5554 89.8446 71.0824 90.02 70.5493C90.1953 70.0162 90.2168 69.4445 90.0819 68.8997C89.947 68.355 89.6612 67.8592 89.2573 67.4693C88.8534 67.0794 88.3478 66.8111 87.7983 66.6951ZM88.3309 70.9976L75.189 81.9084C75.0177 82.048 74.8627 82.2063 74.7269 82.3805L4.5445 51.0768C4.48259 51.0484 4.41805 51.0262 4.3518 51.0105C4.08141 50.9426 3.79578 50.9712 3.54429 51.0914C3.2928 51.2117 3.09127 51.416 2.97455 51.669C2.85783 51.9219 2.83325 52.2077 2.90508 52.4769C2.9769 52.7461 3.14061 52.9817 3.36789 53.1431L61.1696 95.0439C60.8784 95.1974 60.6159 95.3998 60.3937 95.6424L37.6457 119.897C37.4483 120.107 37.2031 120.266 36.9309 120.361C36.6587 120.456 36.3675 120.484 36.0822 120.443C35.7968 120.401 35.5257 120.292 35.2919 120.123C35.058 119.955 34.8683 119.732 34.7389 119.475L1.38397 52.7926C1.23484 52.4913 1.1734 52.1542 1.20665 51.8197C1.2399 51.4853 1.36651 51.1668 1.57204 50.9007C1.77758 50.6346 2.05376 50.4316 2.36916 50.3147C2.68455 50.1978 3.02647 50.1718 3.35594 50.2396L87.5501 67.8651C87.88 67.9344 88.1837 68.0951 88.4264 68.3289C88.6692 68.5627 88.8411 68.8601 88.9226 69.1869C89.004 69.5138 88.9918 69.857 88.8871 70.1772C88.7825 70.4974 88.5897 70.7818 88.3309 70.9976Z" fill="#CCCCCC"/>
<path d="M87.7983 66.6951L3.60385 49.0697C3.05378 48.9537 2.48211 48.9952 1.9546 49.1895C1.42709 49.3837 0.965157 49.7228 0.621918 50.1676C0.278679 50.6125 0.068082 51.1452 0.0143356 51.7044C-0.0394107 52.2635 0.0658849 52.8265 0.318108 53.3286L33.6731 120.011C33.889 120.439 34.2047 120.809 34.5936 121.09C34.9826 121.371 35.4334 121.555 35.9082 121.626C36.3845 121.697 36.8709 121.651 37.3255 121.492C37.7801 121.333 38.1892 121.066 38.5174 120.714L61.2656 96.4598C61.4274 96.2829 61.6241 96.1414 61.8433 96.0442C62.0625 95.947 62.2994 95.8962 62.5392 95.895C62.8651 95.8885 63.1867 95.9706 63.4695 96.1327C63.7523 96.2947 63.9856 96.5306 64.1446 96.815L68.885 105.453C69.1877 106.029 69.6746 106.488 70.2682 106.755C70.8617 107.023 71.5278 107.084 72.1604 106.93L72.1837 106.924C72.824 106.785 73.3988 106.434 73.8156 105.929C74.2325 105.424 74.4672 104.793 74.4819 104.138L75.3023 84.1281C75.3121 83.8785 75.373 83.6335 75.4814 83.4083C75.5978 83.1854 75.7565 82.9873 75.9486 82.8248L89.0905 71.914C89.5225 71.5554 89.8446 71.0824 90.02 70.5493C90.1953 70.0162 90.2168 69.4445 90.0819 68.8997C89.947 68.355 89.6612 67.8592 89.2573 67.4693C88.8534 67.0794 88.3478 66.8111 87.7983 66.6951ZM88.3309 70.9976L75.189 81.9084C75.0177 82.048 74.8627 82.2063 74.7269 82.3805C74.6044 82.5354 74.4988 82.7031 74.4119 82.8804C74.3209 83.0619 74.2495 83.2524 74.1988 83.4489L74.2001 83.4548C74.1466 83.6595 74.1163 83.8695 74.1098 84.081L73.2897 104.091C73.2842 104.484 73.1448 104.864 72.8946 105.168C72.6443 105.472 72.2981 105.681 71.9128 105.762L71.9012 105.765C71.5216 105.861 71.1205 105.827 70.7629 105.667C70.4054 105.508 70.1123 105.232 69.9312 104.885L65.1895 96.2409C64.9452 95.7963 64.5913 95.4214 64.1613 95.1519C63.7313 94.8823 63.2395 94.727 62.7326 94.7008L62.7269 94.7021C62.6587 94.6992 62.5907 94.6963 62.5241 94.6992C62.0513 94.7023 61.5863 94.8206 61.1696 95.0439C60.8784 95.1974 60.6159 95.3998 60.3937 95.6424L37.6457 119.897C37.4483 120.107 37.2031 120.266 36.9309 120.361C36.6587 120.456 36.3675 120.484 36.0822 120.443C35.7968 120.401 35.5257 120.292 35.2919 120.123C35.058 119.955 34.8683 119.732 34.7389 119.475L1.38397 52.7926C1.23484 52.4913 1.1734 52.1542 1.20665 51.8197C1.2399 51.4853 1.36651 51.1668 1.57204 50.9007C1.77758 50.6346 2.05376 50.4316 2.36916 50.3147C2.68455 50.1978 3.02647 50.1718 3.35594 50.2396L87.5501 67.8651C87.88 67.9344 88.1837 68.0951 88.4264 68.3289C88.6692 68.5627 88.8411 68.8601 88.9226 69.1869C89.004 69.5138 88.9918 69.857 88.8871 70.1772C88.7825 70.4974 88.5897 70.7818 88.3309 70.9976Z" fill="var(--fill-0, #3F3D56)"/>
<path d="M74.9925 82.4976L74.5057 83.5873L74.2001 83.4548L74.1988 83.4489L4.07207 52.1755L62.7269 94.7021L62.7326 94.7008L62.888 94.8185L62.1895 95.7848L61.1696 95.0439L3.36789 53.1431C3.14061 52.9817 2.9769 52.7461 2.90508 52.4769C2.83325 52.2077 2.85783 51.9219 2.97455 51.669C3.09127 51.416 3.2928 51.2117 3.54429 51.0914C3.79578 50.9712 4.08141 50.9426 4.3518 51.0105C4.41805 51.0262 4.48259 51.0484 4.5445 51.0768L74.7269 82.3805L74.9925 82.4976Z" fill="var(--fill-0, #3F3D56)"/>
</g>
<path id="Left-arm" d="M255.442 165.864L258.475 195.497L258.535 196.105L259.436 204.893L266.84 277.248V277.26L268.278 291.297C267.716 292.052 267.219 292.852 266.792 293.69C265.488 296.262 264.85 299.12 264.938 302.002C265.025 304.883 265.835 307.697 267.293 310.185C270.905 309.279 274.468 308.245 277.98 307.083C285.247 304.695 292.334 301.792 299.188 298.397C298.475 294.478 296.426 290.926 293.39 288.344L285.957 199.1L285.306 191.273L283.187 165.864H255.442Z" fill="var(--fill-0, #FFB8B8)"/>
<path id="Face" d="M276.7 85.1557C292.03 69.8377 292.03 45.0022 276.7 29.6841C261.371 14.3661 236.516 14.3661 221.186 29.6841C205.856 45.0022 205.856 69.8377 221.186 85.1557C236.516 100.474 261.371 100.474 276.7 85.1557Z" fill="var(--fill-0, #FFB8B8)"/>
<path id="Body" d="M175.777 219.313C175.783 219.39 175.789 219.468 175.795 219.539C175.926 221.07 176.543 222.518 177.555 223.673C178.568 224.828 179.925 225.629 181.426 225.959L240.008 238.744C240.516 238.855 241.034 238.911 241.554 238.911C243.126 238.91 244.654 238.395 245.903 237.443C247.153 236.491 248.056 235.157 248.474 233.643C248.6 233.178 248.737 232.7 248.886 232.205V232.199C250.862 225.493 254.391 216.366 259.436 204.893C260.576 202.298 261.796 199.58 263.096 196.738C263.335 196.213 263.579 195.682 263.818 195.151C266.499 189.334 269.49 183.038 272.792 176.263C274.408 172.951 275.628 169.461 276.428 165.864C278.555 156.369 277.715 146.451 274.022 137.449C273.27 135.616 272.402 133.832 271.425 132.109C267.569 125.317 262.105 119.573 255.512 115.38C248.92 111.188 241.398 108.674 233.608 108.061C232.372 107.959 231.142 107.911 229.906 107.911C217.544 107.966 205.679 112.777 196.776 121.347C191.522 126.437 187.533 132.684 185.127 139.59C184.972 140.026 184.829 140.467 184.685 140.909C182.48 147.896 180.709 155.013 179.383 162.219C178.59 166.497 177.945 170.714 177.425 174.825C175.604 189.58 175.053 204.464 175.777 219.313Z" fill="var(--fill-0, #003320)"/>
<path id="Skirt" d="M149.979 294.268C185.57 314.482 227.597 320.185 267.293 310.186C270.905 309.279 274.468 308.245 277.98 307.083C274.864 296.929 271.144 286.971 266.84 277.26V277.248C259.663 261.17 253.072 251.332 249.859 246.989C249.331 246.269 248.984 245.434 248.845 244.553C248.707 243.671 248.783 242.77 249.065 241.924L250.062 238.935C250.442 237.804 250.533 236.596 250.328 235.421C250.122 234.246 249.627 233.141 248.886 232.205V232.199C248.821 232.116 248.749 232.032 248.677 231.949C222.58 202.238 177.085 218.448 176.625 218.615L176.398 218.698L176.255 218.895C176.1 219.11 175.945 219.319 175.795 219.539C163.46 236.811 155.263 263.359 149.979 294.268Z" fill="var(--fill-0, #FBD6C3)"/>
<path id="Right-arm" d="M96.3365 102.983C96.5327 103.845 96.6605 104.721 96.7189 105.602L165.375 145.18L182.063 135.58L199.854 158.852L171.964 178.715C169.711 180.32 166.997 181.151 164.231 181.083C161.465 181.016 158.796 180.054 156.623 178.342L85.8269 122.533C82.6318 123.714 79.1524 123.896 75.8515 123.054C72.5505 122.212 69.5845 120.385 67.3478 117.817C65.1111 115.249 63.7098 112.062 63.3303 108.679C62.9508 105.295 63.6111 101.877 65.2233 98.8781C66.8355 95.8791 69.3233 93.4417 72.3557 91.89C75.3881 90.3382 78.8214 89.7458 82.199 90.1914C85.5766 90.6371 88.7383 92.0996 91.2637 94.3846C93.7891 96.6696 95.5585 99.6688 96.3365 102.983Z" fill="var(--fill-0, #FFB8B8)"/>
<path id="Sleeve" d="M166.428 144.572V144.578C166.676 145.476 167.098 146.317 167.67 147.054L179.383 162.219L184.966 169.456L189.862 175.791C190.493 176.609 191.293 177.281 192.207 177.762C193.122 178.243 194.129 178.521 195.161 178.577C196.193 178.634 197.225 178.468 198.187 178.09C199.148 177.712 200.017 177.132 200.734 176.388L218.514 157.941L225.852 150.323C230.021 147.072 232.73 142.302 233.385 137.059C234.039 131.815 232.587 126.526 229.344 122.352C226.102 118.177 221.336 115.457 216.09 114.789C210.844 114.121 205.547 115.559 201.361 118.787L196.776 121.347L169.855 136.393C168.452 137.179 167.353 138.411 166.732 139.893C166.111 141.375 166.004 143.022 166.428 144.572Z" fill="var(--fill-0, #003320)"/>
<path id="Vector" d="M244.08 154.082L245.202 189.907L245.208 190.134C245.24 191.166 245.494 192.18 245.954 193.105C246.413 194.031 247.067 194.847 247.871 195.497C248.674 196.147 249.609 196.616 250.61 196.872C251.612 197.129 252.657 197.166 253.674 196.982L258.535 196.105L259.776 195.879H259.782L263.818 195.151L285.306 191.273L289.42 190.533C290.436 190.349 291.401 189.947 292.249 189.357C293.096 188.767 293.807 188.001 294.332 187.112C294.857 186.222 295.184 185.231 295.292 184.204C295.399 183.177 295.284 182.139 294.955 181.161L283.366 146.875C282.397 141.681 279.406 137.083 275.05 134.09C270.693 131.096 265.327 129.95 260.127 130.904C254.926 131.858 250.317 134.834 247.309 139.179C244.301 143.523 243.14 148.883 244.08 154.082Z" fill="var(--fill-0, #003320)"/>
<path id="Hair" d="M242.73 48.3978C232.641 55.2978 219.394 62.3905 209.089 55.0426C202.323 50.2179 200.191 41.2836 202.935 33.4432C207.869 19.3439 221.426 13.1367 234.389 8.37872C251.242 2.19339 269.591 -2.72731 286.989 1.70232C304.386 6.13194 319.762 22.9632 316.621 40.6262C314.096 54.8305 300.687 66.6495 302.59 80.9502C304.506 95.3427 320.705 102.919 335.005 105.491C349.306 108.063 365.308 108.89 375.586 119.154C388.696 132.247 385.422 155.651 373.086 169.475C360.749 183.299 342.133 189.566 324.094 193.825C300.193 199.47 274.342 202.436 251.642 193.069C228.942 183.702 211.277 158.487 217.853 134.842C220.631 124.855 227.174 116.414 233.498 108.197C239.821 99.9793 246.225 91.3864 248.637 81.3047C250.647 72.9032 249.159 63.1487 243.583 56.8467C242.569 55.7436 241.931 54.3478 241.76 52.8596C241.59 51.3715 241.895 49.8676 242.633 48.5639L242.73 48.3978Z" fill="var(--fill-0, #003320)"/>
</g>
<defs>
<clipPath id="clip0_74_831">
<rect width="384" height="315" fill="white"/>
</clipPath>
</defs>
</svg>
