<svg width="242" height="50" viewBox="0 0 242 50" fill="none" xmlns="http://www.w3.org/2000/svg">
<path d="M238.017 45.7626C233.541 50.4584 226.799 51.2967 222.957 47.635C219.115 43.9733 219.628 37.1983 224.103 32.5025C228.579 27.8067 235.321 26.9684 239.163 30.6301C243.005 34.2918 242.492 41.0668 238.017 45.7626Z" fill="#F87626"/>
<path d="M26.136 48.96C22.296 48.96 18.768 48.36 15.552 47.16C12.384 45.96 9.624 44.28 7.272 42.12C4.968 39.96 3.168 37.464 1.872 34.632C0.624 31.752 0 28.632 0 25.272C0 21.576 0.768 18.192 2.304 15.12C3.84 12.048 5.904 9.384 8.496 7.128C11.088 4.872 14.016 3.12 17.28 1.872C20.544 0.623999 23.904 0 27.36 0C29.952 0 32.088 0.144 33.768 0.431999C35.496 0.719998 37.008 1.128 38.304 1.656C39.648 2.184 41.016 2.784 42.408 3.456L43.488 17.424H42.192L33.696 4.752C32.88 4.368 32.04 4.08 31.176 3.888C30.312 3.696 29.256 3.6 28.008 3.6C25.416 3.6 23.088 4.488 21.024 6.264C18.96 8.04 17.328 10.56 16.128 13.824C14.928 17.088 14.328 20.976 14.328 25.488C14.328 29.472 14.904 32.928 16.056 35.856C17.208 38.784 18.792 41.04 20.808 42.624C22.824 44.208 25.128 45 27.72 45C28.92 45 30.096 44.88 31.248 44.64C32.4 44.4 33.552 43.968 34.704 43.344L42.696 32.472H43.992L42.768 45.072C40.944 46.32 38.496 47.28 35.424 47.952C32.4 48.624 29.304 48.96 26.136 48.96Z" fill="#003320"/>
<path d="M66.934 48.96C63.382 48.96 60.238 48.168 57.502 46.584C54.766 44.952 52.63 42.84 51.094 40.248C49.606 37.608 48.862 34.752 48.862 31.68C48.862 28.608 49.606 25.752 51.094 23.112C52.63 20.472 54.766 18.36 57.502 16.776C60.238 15.192 63.382 14.4 66.934 14.4C70.486 14.4 73.63 15.192 76.366 16.776C79.102 18.36 81.214 20.472 82.702 23.112C84.238 25.752 85.006 28.608 85.006 31.68C85.006 34.752 84.238 37.608 82.702 40.248C81.214 42.84 79.102 44.952 76.366 46.584C73.63 48.168 70.486 48.96 66.934 48.96ZM67.582 45.144C68.59 45.144 69.43 44.592 70.102 43.488C70.774 42.384 71.254 40.944 71.542 39.168C71.878 37.344 72.046 35.328 72.046 33.12C72.046 30.432 71.854 27.96 71.47 25.704C71.086 23.448 70.462 21.624 69.598 20.232C68.782 18.84 67.726 18.144 66.43 18.144C65.326 18.144 64.438 18.696 63.766 19.8C63.094 20.856 62.59 22.296 62.254 24.12C61.966 25.896 61.822 27.912 61.822 30.168C61.822 32.808 62.014 35.28 62.398 37.584C62.83 39.84 63.454 41.664 64.27 43.056C65.134 44.448 66.238 45.144 67.582 45.144Z" fill="#003320"/>
<path d="M105.365 48.96C102.245 48.96 99.4845 48.312 97.0845 47.016C94.7325 45.72 92.8605 43.896 91.4685 41.544C90.1245 39.144 89.4525 36.36 89.4525 33.192C89.4525 29.496 90.2205 26.256 91.7565 23.472C93.2925 20.64 95.4765 18.432 98.3085 16.848C101.189 15.216 104.597 14.4 108.533 14.4C110.933 14.4 113.045 14.712 114.869 15.336C116.693 15.96 118.084 16.824 119.044 17.928C119.764 18.792 120.125 19.512 120.125 20.088C120.125 20.424 120.076 20.712 119.98 20.952C119.884 21.192 119.645 21.48 119.261 21.816L115.445 25.056H114.94L112.42 21.456C111.508 20.208 110.716 19.248 110.044 18.576C109.42 17.904 108.532 17.568 107.38 17.568C105.412 17.568 103.996 18.72 103.132 21.024C102.268 23.28 101.836 26.184 101.836 29.736C101.836 32.664 102.58 35.064 104.068 36.936C105.604 38.76 107.956 39.672 111.125 39.672C112.516 39.672 113.981 39.552 115.517 39.312C117.053 39.072 118.565 38.568 120.053 37.8H120.269V39.312C119.069 42.096 117.173 44.4 114.581 46.224C111.989 48.048 108.917 48.96 105.365 48.96Z" fill="#003320"/>
<path d="M140.715 48.96C137.163 48.96 134.019 48.168 131.283 46.584C128.547 44.952 126.411 42.84 124.875 40.248C123.387 37.608 122.643 34.752 122.643 31.68C122.643 28.608 123.387 25.752 124.875 23.112C126.411 20.472 128.547 18.36 131.283 16.776C134.019 15.192 137.163 14.4 140.715 14.4C144.267 14.4 147.411 15.192 150.147 16.776C152.883 18.36 154.995 20.472 156.483 23.112C158.019 25.752 158.787 28.608 158.787 31.68C158.787 34.752 158.019 37.608 156.483 40.248C154.995 42.84 152.883 44.952 150.147 46.584C147.411 48.168 144.267 48.96 140.715 48.96ZM141.363 45.144C142.371 45.144 143.211 44.592 143.883 43.488C144.555 42.384 145.035 40.944 145.323 39.168C145.659 37.344 145.827 35.328 145.827 33.12C145.827 30.432 145.635 27.96 145.251 25.704C144.867 23.448 144.243 21.624 143.379 20.232C142.563 18.84 141.507 18.144 140.211 18.144C139.107 18.144 138.219 18.696 137.547 19.8C136.875 20.856 136.371 22.296 136.035 24.12C135.747 25.896 135.603 27.912 135.603 30.168C135.603 32.808 135.795 35.28 136.179 37.584C136.611 39.84 137.235 41.664 138.051 43.056C138.915 44.448 140.019 45.144 141.363 45.144Z" fill="#003320"/>
<path d="M161.107 48.24V47.088L166.076 44.784V22.608L161.324 20.232V19.08L177.164 14.4H178.315L178.963 19.728H179.324C180.956 18.144 182.54 16.872 184.076 15.912C185.66 14.904 187.627 14.4 189.979 14.4C192.955 14.4 195.38 15.168 197.252 16.704C199.172 18.24 200.132 20.52 200.132 23.544V44.784L205.1 47.088V48.24H184.508V47.088L187.171 44.784V26.208C187.171 24.816 186.788 23.76 186.02 23.04C185.299 22.272 184.34 21.888 183.14 21.888C182.468 21.888 181.747 22.032 180.979 22.32C180.26 22.608 179.612 22.944 179.036 23.328V44.784L181.7 47.088V48.24H161.107Z" fill="#003320"/>
</svg>
