<svg width="500" height="103" viewBox="0 0 500 103" fill="none" xmlns="http://www.w3.org/2000/svg">
<path d="M492.299 94.4316C483.042 104.121 469.096 105.851 461.149 98.2953C453.203 90.7394 454.265 76.7589 463.522 67.0691C472.778 57.3793 486.724 55.6495 494.671 63.2054C502.617 70.7614 501.555 84.7418 492.299 94.4316Z" fill="#F87626"/>
<path d="M54.0581 101.029C46.1157 101.029 38.8186 99.7913 32.1668 97.3151C25.6143 94.8389 19.9057 91.3722 15.041 86.915C10.2755 82.4578 6.55249 77.3073 3.87193 71.4634C1.29064 65.5205 0 59.0824 0 52.149C0 44.5223 1.58848 37.5394 4.76545 31.2003C7.94242 24.8612 12.2115 19.364 17.5726 14.7087C22.9337 10.0534 28.9898 6.43814 35.7409 3.86288C42.4919 1.28763 49.4415 0 56.5897 0C61.9508 0 66.3688 0.297144 69.8436 0.891433C73.4177 1.48572 76.545 2.32763 79.2256 3.41717C82.0054 4.5067 84.8349 5.74481 87.7141 7.13148L89.9479 35.9546H87.2673L69.6947 9.80579C68.0069 9.0134 66.2695 8.41911 64.4825 8.02292C62.6954 7.62673 60.5113 7.42863 57.93 7.42863C52.5689 7.42863 47.7538 9.26103 43.4847 12.9258C39.2157 16.5906 35.8401 21.7907 33.3581 28.5259C30.8761 35.2612 29.6351 43.2842 29.6351 52.5947C29.6351 60.8157 30.8265 67.9472 33.2092 73.9892C35.592 80.0311 38.8682 84.6864 43.038 87.955C47.2077 91.2236 51.9732 92.8579 57.3343 92.8579C59.8163 92.8579 62.2487 92.6103 64.6314 92.115C67.0141 91.6198 69.3969 90.7284 71.7796 89.4407L88.3097 67.0063H90.9903L88.4587 93.0065C84.686 95.5817 79.6227 97.5627 73.2688 98.9494C67.0141 100.336 60.6106 101.029 54.0581 101.029Z" fill="white"/>
<path d="M138.442 101.029C131.095 101.029 124.593 99.3951 118.934 96.1265C113.275 92.7588 108.857 88.4007 105.68 83.0521C102.602 77.6044 101.063 71.7111 101.063 65.372C101.063 59.0329 102.602 53.1395 105.68 47.6918C108.857 42.2442 113.275 37.886 118.934 34.6174C124.593 31.3488 131.095 29.7145 138.442 29.7145C145.789 29.7145 152.292 31.3488 157.951 34.6174C163.61 37.886 167.978 42.2442 171.056 47.6918C174.233 53.1395 175.821 59.0329 175.821 65.372C175.821 71.7111 174.233 77.6044 171.056 83.0521C167.978 88.4007 163.61 92.7588 157.951 96.1265C152.292 99.3951 145.789 101.029 138.442 101.029ZM139.782 93.155C141.867 93.155 143.605 92.016 144.995 89.7379C146.385 87.4598 147.377 84.4883 147.973 80.8235C148.668 77.0597 149.016 72.8996 149.016 68.3434C149.016 62.7967 148.618 57.6957 147.824 53.0404C147.03 48.3852 145.739 44.6213 143.952 41.7489C142.264 38.8765 140.08 37.4403 137.4 37.4403C135.116 37.4403 133.28 38.5794 131.89 40.8575C130.5 43.0365 129.457 46.008 128.762 49.7718C128.167 53.4366 127.869 57.5967 127.869 62.2519C127.869 67.6996 128.266 72.8006 129.06 77.5549C129.954 82.2102 131.244 85.974 132.932 88.8464C134.719 91.7188 137.003 93.155 139.782 93.155Z" fill="white"/>
<path d="M217.929 101.029C211.476 101.029 205.768 99.6922 200.803 97.0179C195.939 94.3436 192.067 90.5798 189.188 85.7264C186.408 80.774 185.018 75.0292 185.018 68.492C185.018 60.8653 186.606 54.1795 189.783 48.4347C192.96 42.5908 197.478 38.0346 203.335 34.766C209.292 31.3983 216.341 29.7145 224.482 29.7145C229.446 29.7145 233.814 30.3583 237.587 31.646C241.359 32.9336 244.239 34.7165 246.224 36.9946C247.713 38.7775 248.458 40.2632 248.458 41.4518C248.458 42.1451 248.359 42.7394 248.16 43.2346C247.962 43.7299 247.465 44.3242 246.671 45.0175L238.778 51.7033H237.736L232.524 44.2746C230.637 41.6994 228.999 39.7184 227.609 38.3317C226.319 36.9451 224.482 36.2517 222.099 36.2517C218.029 36.2517 215.1 38.6289 213.313 43.3832C211.526 48.0385 210.632 54.0309 210.632 61.3605C210.632 67.4025 212.171 72.3549 215.249 76.2178C218.426 79.9816 223.29 81.8635 229.843 81.8635C232.722 81.8635 235.75 81.6159 238.927 81.1207C242.104 80.6254 245.231 79.5854 248.309 78.0006H248.756V81.1207C246.274 86.8655 242.352 91.6198 236.991 95.3836C231.63 99.1475 225.276 101.029 217.929 101.029Z" fill="white"/>
<path d="M291.047 101.029C283.7 101.029 277.197 99.3951 271.538 96.1265C265.879 92.7588 261.461 88.4007 258.284 83.0521C255.207 77.6044 253.668 71.7111 253.668 65.372C253.668 59.0329 255.207 53.1395 258.284 47.6918C261.461 42.2442 265.879 37.886 271.538 34.6174C277.197 31.3488 283.7 29.7145 291.047 29.7145C298.393 29.7145 304.896 31.3488 310.555 34.6174C316.214 37.886 320.583 42.2442 323.66 47.6918C326.837 53.1395 328.426 59.0329 328.426 65.372C328.426 71.7111 326.837 77.6044 323.66 83.0521C320.583 88.4007 316.214 92.7588 310.555 96.1265C304.896 99.3951 298.393 101.029 291.047 101.029ZM292.387 93.155C294.472 93.155 296.209 92.016 297.599 89.7379C298.989 87.4598 299.982 84.4883 300.578 80.8235C301.273 77.0597 301.62 72.8996 301.62 68.3434C301.62 62.7967 301.223 57.6957 300.429 53.0404C299.634 48.3852 298.344 44.6213 296.557 41.7489C294.869 38.8765 292.685 37.4403 290.004 37.4403C287.721 37.4403 285.884 38.5794 284.494 40.8575C283.104 43.0365 282.062 46.008 281.367 49.7718C280.771 53.4366 280.473 57.5967 280.473 62.2519C280.473 67.6996 280.87 72.8006 281.665 77.5549C282.558 82.2102 283.849 85.974 285.537 88.8464C287.324 91.7188 289.607 93.155 292.387 93.155Z" fill="white"/>
<path d="M333.225 99.5437V97.1665L343.5 92.4122V46.6518L333.671 41.7489V39.3717L366.434 29.7145H368.817L370.157 40.7089H370.902C374.277 37.4403 377.553 34.8155 380.73 32.8346C384.006 30.7545 388.077 29.7145 392.942 29.7145C399.097 29.7145 404.111 31.2993 407.983 34.4688C411.954 37.6384 413.939 42.3432 413.939 48.5833V92.4122L424.215 97.1665V99.5437H381.624V97.1665L387.134 92.4122V54.0804C387.134 51.208 386.34 49.029 384.751 47.5432C383.262 45.9585 381.276 45.1661 378.794 45.1661C377.404 45.1661 375.915 45.4632 374.327 46.0575C372.837 46.6518 371.497 47.3451 370.306 48.1375V92.4122L375.816 97.1665V99.5437H333.225Z" fill="white"/>
</svg>
